<?xml version="1.0" encoding="UTF-8"?>
<svg width="62px" height="80px" viewBox="0 0 62 80" version="1.1" xmlns="http://www.w3.org/2000/svg" xmlns:xlink="http://www.w3.org/1999/xlink">
    <title>accessibility</title>
    <g id="Page-1" stroke="none" stroke-width="1" fill="none" fill-rule="evenodd">
        <g id="accessibility" transform="translate(0.415970, 0.903000)" fill="#FFFFFF">
            <path d="M29.6910303,-8.8817842e-16 C33.2630303,-8.8817842e-16 36.1550303,2.891 36.1550303,6.44 C36.1550303,10.012 33.2630303,12.903 29.6910303,12.903 C26.1440303,12.903 23.2530303,10.011 23.2510303,6.44 C23.2510303,2.891 26.1420303,-8.8817842e-16 29.6910303,-8.8817842e-16 Z" id="Path"></path>
            <path d="M57.6340303,20.825 L38.4500303,23.249 L38.4580303,42.453 L47.7520303,73.478 C48.2430303,75.437 47.0650303,77.397 45.1270303,77.881 C43.1900303,78.365 41.2090303,77.298 40.7210303,75.339 L31.2000303,47.097 L28.2680303,47.097 L19.5090303,75.925 C18.7760303,77.806 16.6810303,78.671 14.8020303,77.938 C12.9410303,77.212 11.8050303,75.094 12.5390303,73.213 L20.5840303,42.767 L20.5840303,23.249 L2.91003035,20.844 C1.09603035,20.698 -0.135969654,19.101 0.0120303455,17.287 C0.145030346,15.459 1.79503035,14.102 3.60803035,14.248 L25.0810303,16.097 L34.4980303,16.097 L57.3640303,14.212 C59.1810303,14.139 60.7210303,15.552 60.7820303,17.383 C60.8550303,19.201 59.4520303,20.75 57.6340303,20.825 Z" id="Path"></path>
        </g>
    </g>
</svg>