<?xml version="1.0" encoding="UTF-8"?>
<svg width="38px" height="38px" viewBox="0 0 38 38" version="1.1" xmlns="http://www.w3.org/2000/svg" xmlns:xlink="http://www.w3.org/1999/xlink">
    <!-- Generator: Sketch 63.1 (92452) - https://sketch.com -->
    <title>arrow-up-pink</title>
    <desc>Created with Sketch.</desc>
    <g id="Page-1" stroke="none" stroke-width="1" fill="none" fill-rule="evenodd">
        <g id="arrow-up-pink">
            <path d="M19,0.25 C29.355,0.25 37.75,8.645 37.75,19 C37.75,29.355 29.355,37.75 19,37.75 C8.645,37.75 0.25,29.355 0.25,19 C0.25,8.645 8.645,0.25 19,0.25 Z" id="Path" fill="#E2007C"></path>
            <path d="M19,30.25 C21.0716667,30.25 22.75,28.5716667 22.75,26.5 L22.75,17.75 L24.625,19.625 C25.6616667,20.66 27.3383333,20.66 28.375,19.625 L28.375,19.625 C29.41,18.5883333 29.41,16.9116667 28.375,15.875 L19.8833333,7.38333333 C19.3966667,6.895 18.605,6.895 18.1183333,7.38166667 C18.1183333,7.38166667 18.1166667,7.38333333 18.1166667,7.38333333 L9.61666667,15.8833333 C8.58166667,16.92 8.58166667,18.5966667 9.61666667,19.6333333 L9.61666667,19.6333333 C10.6533333,20.6683333 12.33,20.6683333 13.3666667,19.6333333 L15.25,17.75 L15.25,26.5 C15.25,28.5716667 16.9283333,30.25 19,30.25 Z" id="Path" fill="#FFFFFF"></path>
        </g>
    </g>
</svg>