<?xml version="1.0" encoding="UTF-8"?>
<svg width="38px" height="38px" viewBox="0 0 38 38" version="1.1" xmlns="http://www.w3.org/2000/svg" xmlns:xlink="http://www.w3.org/1999/xlink">
    <!-- Generator: Sketch 63.1 (92452) - https://sketch.com -->
    <title>arrow-down-pink</title>
    <desc>Created with Sketch.</desc>
    <g id="Page-1" stroke="none" stroke-width="1" fill="none" fill-rule="evenodd">
        <g id="arrow-down-pink">
            <path d="M19,0.25 C29.355,0.25 37.75,8.645 37.75,19 C37.75,29.355 29.355,37.75 19,37.75 C8.645,37.75 0.25,29.355 0.25,19 C0.25,8.645 8.645,0.25 19,0.25 Z" id="Path" fill="#E2007C"></path>
            <path d="M18.0233333,29.03 L10.625,19.7816667 C10.1933333,19.2433333 10.28,18.4566667 10.8183333,18.025 C11.04,17.8466667 11.3166667,17.75 11.6,17.75 L15.25,17.75 L15.25,9 C15.25,8.31 15.81,7.75 16.5,7.75 L21.5,7.75 C22.19,7.75 22.75,8.31 22.75,9 L22.75,17.75 L26.4,17.75 C27.09,17.75 27.65,18.31 27.65,19 C27.65,19.2833333 27.5533333,19.56 27.375,19.7816667 L19.9766667,29.03 C19.545,29.57 18.7566667,29.6566667 18.2166667,29.2233333 C18.145,29.1666667 18.08,29.1016667 18.0233333,29.03 Z" id="Path" fill="#FFFFFF"></path>
        </g>
    </g>
</svg>