<?xml version="1.0" encoding="utf-8"?>
<!-- Generator: Adobe Illustrator 21.1.0, SVG Export Plug-In . SVG Version: 6.00 Build 0)  -->
<svg version="1.1" id="Layer_1" xmlns="http://www.w3.org/2000/svg" xmlns:xlink="http://www.w3.org/1999/xlink" x="0px" y="0px"
	 viewBox="0 0 623.5 112.2" style="enable-background:new 0 0 623.5 112.2;" xml:space="preserve">
<style type="text/css">
	.st0{fill:#EE7016;}
	.st1{fill:#FFFFFF;}
</style>
<g>
	<rect x="19.4" y="15.9" class="st0" width="80.7" height="80.7"/>
	<g>
		<g>
			<path class="st1" d="M35.2,49.1C35.3,49,35.3,49,35.2,49.1c2.7-2.7,5.8-4,9.5-4c3.7,0,6.8,1.3,9.4,3.9c2.6,2.6,3.9,5.7,3.9,9.4
				c0,3.7-1.3,6.8-3.9,9.4c-2.6,2.6-5.7,3.9-9.4,3.9c-3.7,0-6.8-1.3-9.4-3.9c-2.6-2.6-3.9-5.7-3.9-9.4V35.6c0-0.5,0.2-1,0.6-1.3
				c0.4-0.4,0.8-0.6,1.3-0.6c0.5,0,1,0.2,1.3,0.6c0.4,0.4,0.6,0.8,0.6,1.3V49.1z M44.7,67.8c2.6,0,4.8-0.9,6.7-2.8
				c1.8-1.8,2.8-4.1,2.8-6.7c0-2.6-0.9-4.8-2.8-6.7c-1.8-1.8-4.1-2.8-6.7-2.8c-2.6,0-4.8,0.9-6.7,2.8c-1.8,1.8-2.8,4.1-2.8,6.7
				c0,2.6,0.9,4.8,2.8,6.7C39.8,66.9,42.1,67.8,44.7,67.8z"/>
			<path class="st1" d="M88.2,58.3c0,3.7-1.3,6.8-3.9,9.4c-2.6,2.6-5.7,3.9-9.4,3.9c-3.7,0-6.8-1.3-9.4-3.9
				c-2.6-2.6-3.9-5.7-3.9-9.4c0-3.7,1.3-6.8,3.9-9.4c2.6-2.6,5.7-3.9,9.4-3.9c3.7,0,6.8,1.3,9.4,3.9C86.9,51.5,88.2,54.7,88.2,58.3z
				 M74.9,48.9c-2.6,0-4.8,0.9-6.7,2.8c-1.8,1.8-2.8,4.1-2.8,6.7c0,2.6,0.9,4.8,2.8,6.7c1.8,1.8,4.1,2.8,6.7,2.8
				c2.6,0,4.8-0.9,6.7-2.8c1.8-1.8,2.8-4.1,2.8-6.7c0-2.6-0.9-4.8-2.8-6.7C79.8,49.8,77.5,48.9,74.9,48.9z"/>
		</g>
		<g>
			<circle class="st1" cx="44.8" cy="57.9" r="2.9"/>
		</g>
		<g>
			<circle class="st1" cx="75.2" cy="57.9" r="2.9"/>
		</g>
		<g>
			<path class="st1" d="M55,71.6c0,0,4.1-3,8.8,0c0,0,0.5-0.1,0.3,1.1l-2.3,4.6c0,0-2.1,3.5-4.3,0L55,72.8C55,72.8,54.2,72,55,71.6z
				"/>
		</g>
	</g>
</g>
<g>
	<path class="st0" d="M136.8,49.3c0.1-0.1,0.1-0.1,0.2-0.2c5-5,11-7.5,18.1-7.5c7.1,0,13.1,2.5,18.1,7.5c5,5,7.5,11,7.5,18.1
		s-2.5,13.1-7.5,18.1c-5,5-11,7.5-18.1,7.5c-7.1,0-13.1-2.5-18.1-7.5c-5-5-7.5-11-7.5-18.1v-44c0-1,0.4-1.9,1.1-2.6
		c0.7-0.7,1.6-1.1,2.6-1.1c1,0,1.9,0.4,2.6,1.1c0.7,0.7,1.1,1.6,1.1,2.6V49.3z M155.1,85.6c5.1,0,9.4-1.8,13-5.4s5.4-7.9,5.4-13
		s-1.8-9.4-5.4-13s-7.9-5.4-13-5.4s-9.4,1.8-13,5.4s-5.4,7.9-5.4,13s1.8,9.4,5.4,13S150.1,85.6,155.1,85.6z"/>
	<path class="st0" d="M239.4,67.3c0,7.1-2.5,13.1-7.5,18.1c-5,5-11,7.5-18.1,7.5c-7.1,0-13.1-2.5-18.1-7.5c-5-5-7.5-11-7.5-18.1
		s2.5-13.1,7.5-18.1c5-5,11-7.5,18.1-7.5c7.1,0,13.1,2.5,18.1,7.5C236.9,54.2,239.4,60.2,239.4,67.3z M213.7,49
		c-5.1,0-9.4,1.8-13,5.4s-5.4,7.9-5.4,13s1.8,9.4,5.4,13s7.9,5.4,13,5.4s9.4-1.8,13-5.4s5.4-7.9,5.4-13s-1.8-9.4-5.4-13
		S218.8,49,213.7,49z"/>
	<path class="st0" d="M606.1,67.3c0,7.1-2.5,13.1-7.5,18.1c-5,5-11,7.5-18.1,7.5c-7.1,0-13.1-2.5-18.1-7.5c-5-5-7.5-11-7.5-18.1
		s2.5-13.1,7.5-18.1c5-5,11-7.5,18.1-7.5c7.1,0,13.1,2.5,18.1,7.5C603.6,54.2,606.1,60.2,606.1,67.3z M580.5,49
		c-5.1,0-9.4,1.8-13,5.4s-5.4,7.9-5.4,13s1.8,9.4,5.4,13s7.9,5.4,13,5.4s9.4-1.8,13-5.4s5.4-7.9,5.4-13s-1.8-9.4-5.4-13
		S585.6,49,580.5,49z"/>
	<path class="st0" d="M254,62.3l31-20.1c0.6-0.4,1.2-0.5,2-0.5c1,0,1.9,0.4,2.6,1.1c0.7,0.7,1.1,1.6,1.1,2.6s-0.4,1.9-1.1,2.6
		c-0.2,0.2-0.4,0.3-0.5,0.5l-21.2,13.8l21.8,24.5c0.7,0.7,1,1.6,1,2.6c0,1-0.4,1.9-1.1,2.6c-0.7,0.7-1.6,1.1-2.6,1.1
		c-1,0-1.9-0.4-2.7-1.1l-22.7-25.6l-7.6,4.9v18.2c0,1-0.4,1.9-1.1,2.6c-0.7,0.7-1.6,1.1-2.6,1.1c-1,0-1.9-0.4-2.6-1.1
		c-0.7-0.7-1.1-1.6-1.1-2.6V23.3c0-1,0.4-1.9,1.1-2.6c0.7-0.7,1.6-1.1,2.6-1.1c1,0,1.9,0.4,2.6,1.1c0.7,0.7,1.1,1.6,1.1,2.6V62.3z"
		/>
	<path class="st0" d="M339,85.2c-5.1,5.1-11.2,7.7-18.3,7.7c-7.1,0-13.1-2.5-18.1-7.5c-5-5-7.5-11-7.5-18.1s2.5-13.1,7.5-18.1
		c5-5,11-7.5,18.1-7.5c7.1,0,13.1,2.5,18.1,7.5s7.5,11,7.5,18.1v22c0,1-0.4,1.9-1.1,2.6c-0.7,0.7-1.6,1.1-2.6,1.1
		c-1,0-1.9-0.4-2.6-1.1s-1.1-1.6-1.1-2.6V85.2z M320.7,49c-5.1,0-9.4,1.8-13,5.4s-5.4,7.9-5.4,13s1.8,9.4,5.4,13s7.9,5.4,13,5.4
		c5.1,0,9.4-1.8,13-5.4s5.4-7.9,5.4-13s-1.8-9.4-5.4-13S325.7,49,320.7,49z"/>
	<path class="st0" d="M362.7,67.3c-2.8-1-4.7-2.1-5.8-3.2c-2.2-2.1-3.2-4.7-3.2-7.7c0-3,1.1-5.7,3.4-7.9c4.4-4.5,10.1-6.7,17.2-6.7
		c7.7,0,14.2,3.1,19.7,9.2c0.5,0.6,0.7,1.3,0.7,2.2c0,1-0.4,1.9-1.1,2.6c-0.7,0.7-1.6,1.1-2.6,1.1c-1,0-1.8-0.3-2.4-1
		s-1.1-1.1-1.3-1.4c-3.6-3.6-7.9-5.4-13-5.4s-9.1,1.6-12.1,4.8c-0.7,0.9-1.1,1.9-1.1,3.2c0.1,1.4,0.8,2.4,2.2,2.9l22.5,7.5
		c2.8,1,4.7,2.1,5.8,3.2c2.2,2.1,3.2,4.7,3.2,7.7s-1.1,5.7-3.4,7.9c-4.4,4.5-10.1,6.7-17.2,6.7c-7.7,0-14.3-3.1-19.7-9.2
		c-0.5-0.6-0.7-1.4-0.7-2.2c0-1,0.4-1.9,1.1-2.6c0.7-0.7,1.6-1.1,2.6-1.1c1,0,1.8,0.3,2.4,1c0.6,0.6,1.1,1.1,1.3,1.4
		c3.6,3.6,7.9,5.4,13,5.4s9.1-1.6,12.1-4.8c0.7-0.9,1.1-1.9,1.1-3.2c-0.1-1.4-0.8-2.4-2.2-2.9L362.7,67.3z"/>
	<path class="st0" d="M414,30.7c0,1.3-0.5,2.3-1.4,3.2c-0.9,0.9-2,1.3-3.2,1.3c-1.3,0-2.3-0.4-3.2-1.3c-0.9-0.9-1.4-2-1.4-3.2
		c0-1.3,0.4-2.3,1.4-3.2c0.9-0.9,2-1.4,3.2-1.4c1.3,0,2.3,0.5,3.2,1.4C413.6,28.3,414,29.4,414,30.7z M489.8,88.8
		c0,1.3-0.5,2.3-1.4,3.2c-0.9,0.9-2,1.3-3.2,1.3c-1.3,0-2.3-0.4-3.2-1.3c-0.9-0.9-1.4-2-1.4-3.2c0-1.3,0.4-2.3,1.4-3.2
		c0.9-0.9,2-1.4,3.2-1.4c1.3,0,2.3,0.5,3.2,1.4C489.4,86.5,489.8,87.5,489.8,88.8z M405.8,45.3c0-1,0.4-1.9,1.1-2.6
		c0.7-0.7,1.6-1.1,2.6-1.1c1,0,1.9,0.4,2.6,1.1c0.7,0.7,1.1,1.6,1.1,2.6v43.9c0,1-0.4,1.9-1.1,2.6c-0.7,0.7-1.6,1.1-2.6,1.1
		c-1,0-1.9-0.4-2.6-1.1c-0.7-0.7-1.1-1.6-1.1-2.6V45.3z"/>
	<path class="st0" d="M424.1,45.3c0-1,0.4-1.9,1.1-2.6c0.7-0.7,1.6-1.1,2.6-1.1c1,0,1.9,0.4,2.6,1.1c0.7,0.7,1.1,1.6,1.1,2.6v3
		c4.6-4.4,10.1-6.6,16.5-6.6c6.6,0,12.2,2.3,16.8,7c4.7,4.7,7,10.3,7,16.8v23.8c0,1-0.4,1.9-1.1,2.6c-0.7,0.7-1.6,1.1-2.6,1.1
		c-1,0-1.9-0.4-2.6-1.1s-1.1-1.6-1.1-2.6V65.5c0-4.5-1.6-8.4-4.8-11.6c-3.2-3.2-7.1-4.8-11.6-4.8c-4.5,0-8.4,1.6-11.6,4.8
		c-3.2,3.2-4.8,7.1-4.8,11.6v23.8c0,1-0.4,1.9-1.1,2.6c-0.7,0.7-1.6,1.1-2.6,1.1c-1,0-1.9-0.4-2.6-1.1c-0.7-0.7-1.1-1.6-1.1-2.6
		V45.3z"/>
	<path class="st0" d="M498.7,45.3c0-1,0.4-1.9,1.1-2.6c0.7-0.7,1.6-1.1,2.6-1.1c1,0,1.9,0.4,2.6,1.1c0.7,0.7,1.1,1.6,1.1,2.6v3
		c4.6-4.4,10.1-6.6,16.5-6.6c6.6,0,12.2,2.3,16.8,7c4.7,4.7,7,10.3,7,16.8v23.8c0,1-0.4,1.9-1.1,2.6c-0.7,0.7-1.6,1.1-2.6,1.1
		c-1,0-1.9-0.4-2.6-1.1s-1.1-1.6-1.1-2.6V65.5c0-4.5-1.6-8.4-4.8-11.6c-3.2-3.2-7.1-4.8-11.6-4.8c-4.5,0-8.4,1.6-11.6,4.8
		c-3.2,3.2-4.8,7.1-4.8,11.6v23.8c0,1-0.4,1.9-1.1,2.6c-0.7,0.7-1.6,1.1-2.6,1.1c-1,0-1.9-0.4-2.6-1.1c-0.7-0.7-1.1-1.6-1.1-2.6
		V45.3z"/>
</g>
</svg>
