<?xml version="1.0" encoding="UTF-8" standalone="no"?>
<svg width="453px" height="82px" viewBox="0 0 453 82" version="1.1" xmlns="http://www.w3.org/2000/svg" xmlns:xlink="http://www.w3.org/1999/xlink">
    <!-- Generator: Sketch 44.1 (41455) - http://www.bohemiancoding.com/sketch -->
    <title>bokasin_logo_med_ikon</title>
    <desc>Created with Sketch.</desc>
    <defs></defs>
    <g id="Page-1" stroke="none" stroke-width="1" fill="none" fill-rule="evenodd">
        <g id="bokasin_logo_med_ikon" fill-rule="nonzero">
            <g id="Group">
                <rect id="Rectangle-path" fill="#EE7016" x="0.4" y="0.9" width="80.7" height="80.7"></rect>
                <g transform="translate(12.000000, 18.000000)" fill="#FFFFFF">
                    <g id="Shape">
                        <path d="M4.2,16.1 C4.3,16 4.3,16 4.2,16.1 C6.9,13.4 10,12.1 13.7,12.1 C17.4,12.1 20.5,13.4 23.1,16 C25.7,18.6 27,21.7 27,25.4 C27,29.1 25.7,32.2 23.1,34.8 C20.5,37.4 17.4,38.7 13.7,38.7 C10,38.7 6.9,37.4 4.3,34.8 C1.7,32.2 0.4,29.1 0.4,25.4 L0.4,2.6 C0.4,2.1 0.6,1.6 1,1.3 C1.4,0.9 1.8,0.7 2.3,0.7 C2.8,0.7 3.3,0.9 3.6,1.3 C4,1.7 4.2,2.1 4.2,2.6 L4.2,16.1 Z M13.7,34.8 C16.3,34.8 18.5,33.9 20.4,32 C22.2,30.2 23.2,27.9 23.2,25.3 C23.2,22.7 22.3,20.5 20.4,18.6 C18.6,16.8 16.3,15.8 13.7,15.8 C11.1,15.8 8.9,16.7 7,18.6 C5.2,20.4 4.2,22.7 4.2,25.3 C4.2,27.9 5.1,30.1 7,32 C8.8,33.9 11.1,34.8 13.7,34.8 Z"></path>
                        <path d="M57.2,25.3 C57.2,29 55.9,32.1 53.3,34.7 C50.7,37.3 47.6,38.6 43.9,38.6 C40.2,38.6 37.1,37.3 34.5,34.7 C31.9,32.1 30.6,29 30.6,25.3 C30.6,21.6 31.9,18.5 34.5,15.9 C37.1,13.3 40.2,12 43.9,12 C47.6,12 50.7,13.3 53.3,15.9 C55.9,18.5 57.2,21.7 57.2,25.3 Z M43.9,15.9 C41.3,15.9 39.1,16.8 37.2,18.7 C35.4,20.5 34.4,22.8 34.4,25.4 C34.4,28 35.3,30.2 37.2,32.1 C39,33.9 41.3,34.9 43.9,34.9 C46.5,34.9 48.7,34 50.6,32.1 C52.4,30.3 53.4,28 53.4,25.4 C53.4,22.8 52.5,20.6 50.6,18.7 C48.8,16.8 46.5,15.9 43.9,15.9 Z"></path>
                    </g>
                    <circle id="Oval" cx="13.8" cy="24.9" r="2.9"></circle>
                    <circle id="Oval" cx="44.2" cy="24.9" r="2.9"></circle>
                    <path d="M24,38.6 C24,38.6 28.1,35.6 32.8,38.6 C32.8,38.6 33.3,38.5 33.1,39.7 L30.8,44.3 C30.8,44.3 28.7,47.8 26.5,44.3 L24,39.8 C24,39.8 23.2,39 24,38.6 Z" id="Shape"></path>
                </g>
            </g>
            <g id="Group" transform="translate(110.000000, 4.000000)" fill="#EE7016">
                <path d="M7.8,30.3 C7.9,30.2 7.9,30.2 8,30.1 C13,25.1 19,22.6 26.1,22.6 C33.2,22.6 39.2,25.1 44.2,30.1 C49.2,35.1 51.7,41.1 51.7,48.2 C51.7,55.3 49.2,61.3 44.2,66.3 C39.2,71.3 33.2,73.8 26.1,73.8 C19,73.8 13,71.3 8,66.3 C3,61.3 0.5,55.3 0.5,48.2 L0.5,4.2 C0.5,3.2 0.9,2.3 1.6,1.6 C2.3,0.9 3.2,0.5 4.2,0.5 C5.2,0.5 6.1,0.9 6.8,1.6 C7.5,2.3 7.9,3.2 7.9,4.2 L7.9,30.3 L7.8,30.3 Z M26.1,66.6 C31.2,66.6 35.5,64.8 39.1,61.2 C42.7,57.6 44.5,53.3 44.5,48.2 C44.5,43.1 42.7,38.8 39.1,35.2 C35.5,31.6 31.2,29.8 26.1,29.8 C21,29.8 16.7,31.6 13.1,35.2 C9.5,38.8 7.7,43.1 7.7,48.2 C7.7,53.3 9.5,57.6 13.1,61.2 C16.7,64.8 21.1,66.6 26.1,66.6 Z" id="Shape"></path>
                <path d="M110.4,48.3 C110.4,55.4 107.9,61.4 102.9,66.4 C97.9,71.4 91.9,73.9 84.8,73.9 C77.7,73.9 71.7,71.4 66.7,66.4 C61.7,61.4 59.2,55.4 59.2,48.3 C59.2,41.2 61.7,35.2 66.7,30.2 C71.7,25.2 77.7,22.7 84.8,22.7 C91.9,22.7 97.9,25.2 102.9,30.2 C107.9,35.2 110.4,41.2 110.4,48.3 Z M84.7,30 C79.6,30 75.3,31.8 71.7,35.4 C68.1,39 66.3,43.3 66.3,48.4 C66.3,53.5 68.1,57.8 71.7,61.4 C75.3,65 79.6,66.8 84.7,66.8 C89.8,66.8 94.1,65 97.7,61.4 C101.3,57.8 103.1,53.5 103.1,48.4 C103.1,43.3 101.3,39 97.7,35.4 C94.1,31.8 89.8,30 84.7,30 Z" id="Shape"></path>
                <path d="M125,43.3 L156,23.2 C156.6,22.8 157.2,22.7 158,22.7 C159,22.7 159.9,23.1 160.6,23.8 C161.3,24.5 161.7,25.4 161.7,26.4 C161.7,27.4 161.3,28.3 160.6,29 C160.4,29.2 160.2,29.3 160.1,29.5 L138.9,43.3 L160.7,67.8 C161.4,68.5 161.7,69.4 161.7,70.4 C161.7,71.4 161.3,72.3 160.6,73 C159.9,73.7 159,74.1 158,74.1 C157,74.1 156.1,73.7 155.3,73 L132.6,47.4 L125,52.3 L125,70.5 C125,71.5 124.6,72.4 123.9,73.1 C123.2,73.8 122.3,74.2 121.3,74.2 C120.3,74.2 119.4,73.8 118.7,73.1 C118,72.4 117.6,71.5 117.6,70.5 L117.6,4.3 C117.6,3.3 118,2.4 118.7,1.7 C119.4,1 120.3,0.6 121.3,0.6 C122.3,0.6 123.2,1 123.9,1.7 C124.6,2.4 125,3.3 125,4.3 L125,43.3 L125,43.3 Z" id="Shape"></path>
                <path d="M210,66.2 C204.9,71.3 198.8,73.9 191.7,73.9 C184.6,73.9 178.6,71.4 173.6,66.4 C168.6,61.4 166.1,55.4 166.1,48.3 C166.1,41.2 168.6,35.2 173.6,30.2 C178.6,25.2 184.6,22.7 191.7,22.7 C198.8,22.7 204.8,25.2 209.8,30.2 C214.8,35.2 217.3,41.2 217.3,48.3 L217.3,70.3 C217.3,71.3 216.9,72.2 216.2,72.9 C215.5,73.6 214.6,74 213.6,74 C212.6,74 211.7,73.6 211,72.9 C210.3,72.2 209.9,71.3 209.9,70.3 L209.9,66.2 L210,66.2 Z M191.7,30 C186.6,30 182.3,31.8 178.7,35.4 C175.1,39 173.3,43.3 173.3,48.4 C173.3,53.5 175.1,57.8 178.7,61.4 C182.3,65 186.6,66.8 191.7,66.8 C196.8,66.8 201.1,65 204.7,61.4 C208.3,57.8 210.1,53.5 210.1,48.4 C210.1,43.3 208.3,39 204.7,35.4 C201.1,31.8 196.7,30 191.7,30 Z" id="Shape"></path>
                <path d="M233.7,48.3 C230.9,47.3 229,46.2 227.9,45.1 C225.7,43 224.7,40.4 224.7,37.4 C224.7,34.4 225.8,31.7 228.1,29.5 C232.5,25 238.2,22.8 245.3,22.8 C253,22.8 259.5,25.9 265,32 C265.5,32.6 265.7,33.3 265.7,34.2 C265.7,35.2 265.3,36.1 264.6,36.8 C263.9,37.5 263,37.9 262,37.9 C261,37.9 260.2,37.6 259.6,36.9 C259,36.2 258.5,35.8 258.3,35.5 C254.7,31.9 250.4,30.1 245.3,30.1 C240.2,30.1 236.2,31.7 233.2,34.9 C232.5,35.8 232.1,36.8 232.1,38.1 C232.2,39.5 232.9,40.5 234.3,41 L256.8,48.5 C259.6,49.5 261.5,50.6 262.6,51.7 C264.8,53.8 265.8,56.4 265.8,59.4 C265.8,62.4 264.7,65.1 262.4,67.3 C258,71.8 252.3,74 245.2,74 C237.5,74 230.9,70.9 225.5,64.8 C225,64.2 224.8,63.4 224.8,62.6 C224.8,61.6 225.2,60.7 225.9,60 C226.6,59.3 227.5,58.9 228.5,58.9 C229.5,58.9 230.3,59.2 230.9,59.9 C231.5,60.5 232,61 232.2,61.3 C235.8,64.9 240.1,66.7 245.2,66.7 C250.3,66.7 254.3,65.1 257.3,61.9 C258,61 258.4,60 258.4,58.7 C258.3,57.3 257.6,56.3 256.2,55.8 L233.7,48.3 Z" id="Shape"></path>
                <path d="M285,11.7 C285,13 284.5,14 283.6,14.9 C282.7,15.8 281.6,16.2 280.4,16.2 C279.1,16.2 278.1,15.8 277.2,14.9 C276.3,14 275.8,12.9 275.8,11.7 C275.8,10.4 276.2,9.4 277.2,8.5 C278.1,7.6 279.2,7.1 280.4,7.1 C281.7,7.1 282.7,7.6 283.6,8.5 C284.6,9.3 285,10.4 285,11.7 Z M276.8,26.3 C276.8,25.3 277.2,24.4 277.9,23.7 C278.6,23 279.5,22.6 280.5,22.6 C281.5,22.6 282.4,23 283.1,23.7 C283.8,24.4 284.2,25.3 284.2,26.3 L284.2,70.2 C284.2,71.2 283.8,72.1 283.1,72.8 C282.4,73.5 281.5,73.9 280.5,73.9 C279.5,73.9 278.6,73.5 277.9,72.8 C277.2,72.1 276.8,71.2 276.8,70.2 L276.8,26.3 Z" id="Shape"></path>
                <path d="M295.1,26.3 C295.1,25.3 295.5,24.4 296.2,23.7 C296.9,23 297.8,22.6 298.8,22.6 C299.8,22.6 300.7,23 301.4,23.7 C302.1,24.4 302.5,25.3 302.5,26.3 L302.5,29.3 C307.1,24.9 312.6,22.7 319,22.7 C325.6,22.7 331.2,25 335.8,29.7 C340.5,34.4 342.8,40 342.8,46.5 L342.8,70.3 C342.8,71.3 342.4,72.2 341.7,72.9 C341,73.6 340.1,74 339.1,74 C338.1,74 337.2,73.6 336.5,72.9 C335.8,72.2 335.4,71.3 335.4,70.3 L335.4,46.5 C335.4,42 333.8,38.1 330.6,34.9 C327.4,31.7 323.5,30.1 319,30.1 C314.5,30.1 310.6,31.7 307.4,34.9 C304.2,38.1 302.6,42 302.6,46.5 L302.6,70.3 C302.6,71.3 302.2,72.2 301.5,72.9 C300.8,73.6 299.9,74 298.9,74 C297.9,74 297,73.6 296.3,72.9 C295.6,72.2 295.2,71.3 295.2,70.3 L295.2,26.3 L295.1,26.3 Z" id="Shape"></path>
            </g>
        </g>
    </g>
</svg>