<?xml version="1.0" encoding="UTF-8" standalone="no"?>
<svg width="101px" height="78px" viewBox="0 0 101 78" version="1.1" xmlns="http://www.w3.org/2000/svg" xmlns:xlink="http://www.w3.org/1999/xlink">
    <!-- Generator: Sketch 44 (41411) - http://www.bohemiancoding.com/sketch -->
    <title>ic_import_contacts_black_48px</title>
    <desc>Created with Sketch.</desc>
    <defs></defs>
    <g id="Page-1" stroke="none" stroke-width="1" fill="none" fill-rule="evenodd">
        <g id="ic_import_contacts_black_48px" fill-rule="nonzero" fill="#1D1D1D">
            <path d="M91.375,2.70833333 C86.33375,1.11875 80.7929167,0.4375 75.4791667,0.4375 C66.6229167,0.4375 57.0854167,2.25416667 50.5,7.25 C43.9145833,2.25416667 34.3770833,0.4375 25.5208333,0.4375 C16.6645833,0.4375 7.12708333,2.25416667 0.541666667,7.25 L0.541666667,73.7854167 C0.541666667,74.9208333 1.67708333,76.05625 2.8125,76.05625 C3.26666667,76.05625 3.49375,75.8291667 3.94791667,75.8291667 C10.0791667,72.8770833 18.9354167,70.8333333 25.5208333,70.8333333 C34.3770833,70.8333333 43.9145833,72.65 50.5,77.6458333 C56.63125,73.7854167 67.7583333,70.8333333 75.4791667,70.8333333 C82.9729167,70.8333333 90.69375,72.1958333 97.0520833,75.6020833 C97.50625,75.8291667 97.7333333,75.8291667 98.1875,75.8291667 C99.3229167,75.8291667 100.458333,74.69375 100.458333,73.5583333 L100.458333,7.25 C97.7333333,5.20625 94.78125,3.84375 91.375,2.70833333 Z M91.375,64.0208333 C86.3791667,62.43125 80.9291667,61.75 75.4791667,61.75 C67.7583333,61.75 56.63125,64.7020833 50.5,68.5625 L50.5,16.3333333 C56.63125,12.4729167 67.7583333,9.52083333 75.4791667,9.52083333 C80.9291667,9.52083333 86.3791667,10.2020833 91.375,11.7916667 L91.375,64.0208333 Z" id="Shape"></path>
        </g>
    </g>
</svg>