<?xml version="1.0" encoding="UTF-8" standalone="no"?>
<svg width="40px" height="40px" viewBox="0 0 40 40" version="1.1" xmlns="http://www.w3.org/2000/svg" xmlns:xlink="http://www.w3.org/1999/xlink">
    <!-- Generator: Sketch 44 (41411) - http://www.bohemiancoding.com/sketch -->
    <title>Shape</title>
    <desc>Created with Sketch.</desc>
    <defs></defs>
    <g id="Page-1" stroke="none" stroke-width="1" fill="none" fill-rule="evenodd">
        <g id="ic_shopping_cart_48px" fill-rule="nonzero" fill="#1D1D1D">
            <path d="M12,32 C9.79,32 8.02,33.79 8.02,36 C8.02,38.21 9.79,40 12,40 C14.21,40 16,38.21 16,36 C16,33.79 14.21,32 12,32 Z M0,0 L0,4 L4,4 L11.19,19.17 L8.49,24.07 C8.18,24.65 8,25.3 8,26 C8,28.21 9.79,30 12,30 L36,30 L36,26 L12.85,26 C12.57,26 12.35,25.78 12.35,25.5 C12.35,25.41 12.37,25.33 12.41,25.26 L14.2,22 L29.1,22 C30.6,22 31.91,21.17 32.6,19.94 L39.75,6.96 C39.91,6.68 40,6.35 40,6 C40,4.89 39.1,4 38,4 L8.43,4 L6.53,0 L0,0 Z M32,32 C29.79,32 28.02,33.79 28.02,36 C28.02,38.21 29.79,40 32,40 C34.21,40 36,38.21 36,36 C36,33.79 34.21,32 32,32 Z" id="Shape"></path>
        </g>
    </g>
</svg>