<?xml version="1.0" encoding="UTF-8"?>
<svg width="94px" height="94px" viewBox="0 0 94 94" version="1.1" xmlns="http://www.w3.org/2000/svg" xmlns:xlink="http://www.w3.org/1999/xlink">
    <!-- Generator: Sketch 55 (78076) - https://sketchapp.com -->
    <title>day_black</title>
    <desc>Created with Sketch.</desc>
    <g id="Page-1" stroke="none" stroke-width="1" fill="none" fill-rule="evenodd">
        <g id="day_black" transform="translate(-1.000000, -1.000000)" fill="#FFFFFF" fill-rule="nonzero">
            <g id="Group" transform="translate(46.086645, 0.833600)">
                <path d="M3.681805,2.34270225 C3.681805,1.381185 2.9019987,0.6013467 1.93957487,0.6013467 C1.92190221,0.6013467 1.90422955,0.6013467 1.88655688,0.6013467 C0.924869416,0.6013467 0.145063117,1.381185 0.145063117,2.34270225 C0.145063117,5.31756225 0.145063117,11.3416538 0.145063117,14.3154513 C0.145063117,15.278031 0.924869416,16.0578693 1.88655688,16.0578693 C1.90422955,16.0578693 1.92190221,16.0578693 1.93957487,16.0578693 C2.9019987,16.0578693 3.681805,15.278031 3.681805,14.3154513 C3.681805,11.3416538 3.681805,5.31756225 3.681805,2.34270225 Z" id="Path"></path>
            </g>
            <g id="Group" transform="translate(75.402604, 20.720063) rotate(45.000000) translate(-75.402604, -20.720063) translate(73.402604, 12.220063)">
                <path d="M3.68180601,2.34270974 C3.68180601,1.38118941 2.9019995,0.601348621 1.93957541,0.601348621 C1.92190274,0.601348621 1.90423007,0.601348621 1.8865574,0.601348621 C0.924869671,0.601348621 0.145063157,1.38118941 0.145063157,2.34270974 C0.145063157,5.31757924 0.145063157,11.34169 0.145063157,14.315497 C0.145063157,15.2780798 0.924869671,16.0579206 1.8865574,16.0579206 C1.90423007,16.0579206 1.92190274,16.0579206 1.93957541,16.0579206 C2.9019995,16.0579206 3.68180601,15.2780798 3.68180601,14.315497 C3.68180601,11.34169 3.68180601,5.31757924 3.68180601,2.34270974 Z" id="Path"></path>
            </g>
            <g id="Group" transform="translate(46.086645, 78.507400)">
                <path d="M3.681805,2.34270225 C3.681805,1.381185 2.9019987,0.6013467 1.93957487,0.6013467 C1.92190221,0.6013467 1.90422955,0.6013467 1.88655688,0.6013467 C0.924869416,0.6013467 0.145063117,1.381185 0.145063117,2.34270225 C0.145063117,5.31756225 0.145063117,11.3416538 0.145063117,14.3154513 C0.145063117,15.278031 0.924869416,16.0578693 1.88655688,16.0578693 C1.90422955,16.0578693 1.92190221,16.0578693 1.93957487,16.0578693 C2.9019987,16.0578693 3.681805,15.278031 3.681805,14.3154513 C3.681805,11.3416538 3.681805,5.31756225 3.681805,2.34270225 Z" id="Path"></path>
            </g>
            <g id="Group" transform="translate(20.478874, 75.643763) rotate(45.000000) translate(-20.478874, -75.643763) translate(18.478874, 67.143763)">
                <path d="M3.68180601,2.34270974 C3.68180601,1.38118941 2.9019995,0.601348621 1.93957541,0.601348621 C1.92190274,0.601348621 1.90423007,0.601348621 1.8865574,0.601348621 C0.924869671,0.601348621 0.145063157,1.38118941 0.145063157,2.34270974 C0.145063157,5.31757924 0.145063157,11.34169 0.145063157,14.315497 C0.145063157,15.2780798 0.924869671,16.0579206 1.8865574,16.0579206 C1.90423007,16.0579206 1.92190274,16.0579206 1.93957541,16.0579206 C2.9019995,16.0579206 3.68180601,15.2780798 3.68180601,14.315497 C3.68180601,11.34169 3.68180601,5.31757924 3.68180601,2.34270974 Z" id="Path"></path>
            </g>
            <g id="Group" transform="translate(86.666200, 48.086646) rotate(90.000000) translate(-86.666200, -48.086646) translate(84.666200, 39.586646)">
                <path d="M3.681805,2.34270225 C3.681805,1.381185 2.9019987,0.6013467 1.93957487,0.6013467 C1.92190221,0.6013467 1.90422955,0.6013467 1.88655688,0.6013467 C0.924869416,0.6013467 0.145063117,1.381185 0.145063117,2.34270225 C0.145063117,5.31756225 0.145063117,11.3416538 0.145063117,14.3154513 C0.145063117,15.278031 0.924869416,16.0578693 1.88655688,16.0578693 C1.90422955,16.0578693 1.92190221,16.0578693 1.93957487,16.0578693 C2.9019987,16.0578693 3.681805,15.278031 3.681805,14.3154513 C3.681805,11.3416538 3.681805,5.31756225 3.681805,2.34270225 Z" id="Path"></path>
            </g>
            <g id="Group" transform="translate(75.280437, 75.402604) rotate(135.000000) translate(-75.280437, -75.402604) translate(73.280437, 66.902604)">
                <path d="M3.68180601,2.34270974 C3.68180601,1.38118941 2.9019995,0.601348621 1.93957541,0.601348621 C1.92190274,0.601348621 1.90423007,0.601348621 1.8865574,0.601348621 C0.924869671,0.601348621 0.145063157,1.38118941 0.145063157,2.34270974 C0.145063157,5.31757924 0.145063157,11.34169 0.145063157,14.315497 C0.145063157,15.2780798 0.924869671,16.0579206 1.8865574,16.0579206 C1.90423007,16.0579206 1.92190274,16.0579206 1.93957541,16.0579206 C2.9019995,16.0579206 3.68180601,15.2780798 3.68180601,14.315497 C3.68180601,11.34169 3.68180601,5.31757924 3.68180601,2.34270974 Z" id="Path"></path>
            </g>
            <g id="Group" transform="translate(9.333600, 47.913356) rotate(-90.000000) translate(-9.333600, -47.913356) translate(7.333600, 39.413356)">
                <path d="M3.681805,2.34270225 C3.681805,1.381185 2.9019987,0.6013467 1.93957487,0.6013467 C1.92190221,0.6013467 1.90422955,0.6013467 1.88655688,0.6013467 C0.924869416,0.6013467 0.145063117,1.381185 0.145063117,2.34270225 C0.145063117,5.31756225 0.145063117,11.3416538 0.145063117,14.3154513 C0.145063117,15.278031 0.924869416,16.0578693 1.88655688,16.0578693 C1.90422955,16.0578693 1.92190221,16.0578693 1.93957487,16.0578693 C2.9019987,16.0578693 3.681805,15.278031 3.681805,14.3154513 C3.681805,11.3416538 3.681805,5.31756225 3.681805,2.34270225 Z" id="Path"></path>
            </g>
            <g id="Group" transform="translate(20.720063, 20.597396) rotate(-45.000000) translate(-20.720063, -20.597396) translate(18.720063, 12.097396)">
                <path d="M3.68180601,2.34270974 C3.68180601,1.38118941 2.9019995,0.601348621 1.93957541,0.601348621 C1.92190274,0.601348621 1.90423007,0.601348621 1.8865574,0.601348621 C0.924869671,0.601348621 0.145063157,1.38118941 0.145063157,2.34270974 C0.145063157,5.31757924 0.145063157,11.34169 0.145063157,14.315497 C0.145063157,15.2780798 0.924869671,16.0579206 1.8865574,16.0579206 C1.90423007,16.0579206 1.92190274,16.0579206 1.93957541,16.0579206 C2.9019995,16.0579206 3.68180601,15.2780798 3.68180601,14.315497 C3.68180601,11.34169 3.68180601,5.31757924 3.68180601,2.34270974 Z" id="Path"></path>
            </g>
            <g id="Group" transform="translate(21.575550, 22.076200)">
                <circle id="Oval" cx="26.4242632" cy="25.92364" r="25.4662254"></circle>
            </g>
        </g>
    </g>
</svg>