<?xml version="1.0" encoding="UTF-8"?>
<svg width="94px" height="94px" viewBox="0 0 94 94" version="1.1" xmlns="http://www.w3.org/2000/svg" xmlns:xlink="http://www.w3.org/1999/xlink">
    <!-- Generator: Sketch 55 (78076) - https://sketchapp.com -->
    <title>noun_sun_2548004</title>
    <desc>Created with Sketch.</desc>
    <g id="Page-1" stroke="none" stroke-width="1" fill="none" fill-rule="evenodd">
        <g id="Artboard" transform="translate(-72.000000, -72.000000)" fill="#000000">
            <g id="noun_sun_2548004" transform="translate(71.000000, 71.000000)">
                <g id="Group" transform="translate(46.086645, 0.833600)">
                    <path d="M3.681805,2.34270225 C3.681805,1.381185 2.9019987,0.6013467 1.93957487,0.6013467 C1.92190221,0.6013467 1.90422955,0.6013467 1.88655688,0.6013467 C0.924869416,0.6013467 0.145063117,1.381185 0.145063117,2.34270225 C0.145063117,5.31756225 0.145063117,11.3416538 0.145063117,14.3154513 C0.145063117,15.278031 0.924869416,16.0578693 1.88655688,16.0578693 C1.90422955,16.0578693 1.92190221,16.0578693 1.93957487,16.0578693 C2.9019987,16.0578693 3.681805,15.278031 3.681805,14.3154513 C3.681805,11.3416538 3.681805,5.31756225 3.681805,2.34270225 Z" id="Path"></path>
                </g>
                <g id="Group" transform="translate(75.290369, 20.607301) rotate(45.000000) translate(-75.290369, -20.607301) translate(73.449466, 12.107674)">
                    <path d="M3.68180601,2.34270974 C3.68180601,1.38118941 2.9019995,0.601348621 1.93957541,0.601348621 C1.92190274,0.601348621 1.90423007,0.601348621 1.8865574,0.601348621 C0.924869671,0.601348621 0.145063157,1.38118941 0.145063157,2.34270974 C0.145063157,5.31757924 0.145063157,11.34169 0.145063157,14.315497 C0.145063157,15.2780798 0.924869671,16.0579206 1.8865574,16.0579206 C1.90423007,16.0579206 1.92190274,16.0579206 1.93957541,16.0579206 C2.9019995,16.0579206 3.68180601,15.2780798 3.68180601,14.315497 C3.68180601,11.34169 3.68180601,5.31757924 3.68180601,2.34270974 Z" id="Path"></path>
                </g>
                <g id="Group" transform="translate(46.086645, 78.507400)">
                    <path d="M3.681805,2.34270225 C3.681805,1.381185 2.9019987,0.6013467 1.93957487,0.6013467 C1.92190221,0.6013467 1.90422955,0.6013467 1.88655688,0.6013467 C0.924869416,0.6013467 0.145063117,1.381185 0.145063117,2.34270225 C0.145063117,5.31756225 0.145063117,11.3416538 0.145063117,14.3154513 C0.145063117,15.278031 0.924869416,16.0578693 1.88655688,16.0578693 C1.90422955,16.0578693 1.92190221,16.0578693 1.93957487,16.0578693 C2.9019987,16.0578693 3.681805,15.278031 3.681805,14.3154513 C3.681805,11.3416538 3.681805,5.31756225 3.681805,2.34270225 Z" id="Path"></path>
                </g>
                <g id="Group" transform="translate(20.366639, 75.531001) rotate(45.000000) translate(-20.366639, -75.531001) translate(18.525736, 67.031374)">
                    <path d="M3.68180601,2.34270974 C3.68180601,1.38118941 2.9019995,0.601348621 1.93957541,0.601348621 C1.92190274,0.601348621 1.90423007,0.601348621 1.8865574,0.601348621 C0.924869671,0.601348621 0.145063157,1.38118941 0.145063157,2.34270974 C0.145063157,5.31757924 0.145063157,11.34169 0.145063157,14.315497 C0.145063157,15.2780798 0.924869671,16.0579206 1.8865574,16.0579206 C1.90423007,16.0579206 1.92190274,16.0579206 1.93957541,16.0579206 C2.9019995,16.0579206 3.68180601,15.2780798 3.68180601,14.315497 C3.68180601,11.34169 3.68180601,5.31757924 3.68180601,2.34270974 Z" id="Path"></path>
                </g>
                <g id="Group" transform="translate(86.666600, 47.927548) rotate(90.000000) translate(-86.666600, -47.927548) translate(84.825698, 39.427948)">
                    <path d="M3.681805,2.34270225 C3.681805,1.381185 2.9019987,0.6013467 1.93957487,0.6013467 C1.92190221,0.6013467 1.90422955,0.6013467 1.88655688,0.6013467 C0.924869416,0.6013467 0.145063117,1.381185 0.145063117,2.34270225 C0.145063117,5.31756225 0.145063117,11.3416538 0.145063117,14.3154513 C0.145063117,15.278031 0.924869416,16.0578693 1.88655688,16.0578693 C1.90422955,16.0578693 1.92190221,16.0578693 1.93957487,16.0578693 C2.9019987,16.0578693 3.681805,15.278031 3.681805,14.3154513 C3.681805,11.3416538 3.681805,5.31756225 3.681805,2.34270225 Z" id="Path"></path>
                </g>
                <g id="Group" transform="translate(75.393199, 75.290369) rotate(135.000000) translate(-75.393199, -75.290369) translate(73.552296, 66.790742)">
                    <path d="M3.68180601,2.34270974 C3.68180601,1.38118941 2.9019995,0.601348621 1.93957541,0.601348621 C1.92190274,0.601348621 1.90423007,0.601348621 1.8865574,0.601348621 C0.924869671,0.601348621 0.145063157,1.38118941 0.145063157,2.34270974 C0.145063157,5.31757924 0.145063157,11.34169 0.145063157,14.315497 C0.145063157,15.2780798 0.924869671,16.0579206 1.8865574,16.0579206 C1.90423007,16.0579206 1.92190274,16.0579206 1.93957541,16.0579206 C2.9019995,16.0579206 3.68180601,15.2780798 3.68180601,14.315497 C3.68180601,11.34169 3.68180601,5.31757924 3.68180601,2.34270974 Z" id="Path"></path>
                </g>
                <g id="Group" transform="translate(9.333200, 48.072453) rotate(-90.000000) translate(-9.333200, -48.072453) translate(7.492297, 39.572853)">
                    <path d="M3.681805,2.34270225 C3.681805,1.381185 2.9019987,0.6013467 1.93957487,0.6013467 C1.92190221,0.6013467 1.90422955,0.6013467 1.88655688,0.6013467 C0.924869416,0.6013467 0.145063117,1.381185 0.145063117,2.34270225 C0.145063117,5.31756225 0.145063117,11.3416538 0.145063117,14.3154513 C0.145063117,15.278031 0.924869416,16.0578693 1.88655688,16.0578693 C1.90422955,16.0578693 1.92190221,16.0578693 1.93957487,16.0578693 C2.9019987,16.0578693 3.681805,15.278031 3.681805,14.3154513 C3.681805,11.3416538 3.681805,5.31756225 3.681805,2.34270225 Z" id="Path"></path>
                </g>
                <g id="Group" transform="translate(20.607301, 20.709631) rotate(-45.000000) translate(-20.607301, -20.709631) translate(18.766398, 12.210004)">
                    <path d="M3.68180601,2.34270974 C3.68180601,1.38118941 2.9019995,0.601348621 1.93957541,0.601348621 C1.92190274,0.601348621 1.90423007,0.601348621 1.8865574,0.601348621 C0.924869671,0.601348621 0.145063157,1.38118941 0.145063157,2.34270974 C0.145063157,5.31757924 0.145063157,11.34169 0.145063157,14.315497 C0.145063157,15.2780798 0.924869671,16.0579206 1.8865574,16.0579206 C1.90423007,16.0579206 1.92190274,16.0579206 1.93957541,16.0579206 C2.9019995,16.0579206 3.68180601,15.2780798 3.68180601,14.315497 C3.68180601,11.34169 3.68180601,5.31757924 3.68180601,2.34270974 Z" id="Path"></path>
                </g>
                <g id="Group" transform="translate(21.575550, 22.076200)">
                    <circle id="Oval" cx="26.4242632" cy="25.92364" r="25.4662254"></circle>
                </g>
            </g>
        </g>
    </g>
</svg>