<?xml version="1.0" encoding="UTF-8" standalone="no"?>
<svg width="44px" height="30px" viewBox="0 0 44 30" version="1.1" xmlns="http://www.w3.org/2000/svg" xmlns:xlink="http://www.w3.org/1999/xlink">
    <!-- Generator: Sketch 44 (41411) - http://www.bohemiancoding.com/sketch -->
    <title>ic_visibility_48px</title>
    <desc>Created with Sketch.</desc>
    <defs></defs>
    <g id="Page-1" stroke="none" stroke-width="1" fill="none" fill-rule="evenodd">
        <g id="ic_visibility_48px" fill-rule="nonzero" fill="#FFFFFF">
            <path d="M22,0 C12,0 3.46,6.22 0,15 C3.46,23.78 12,30 22,30 C32.01,30 40.54,23.78 44,15 C40.54,6.22 32.01,0 22,0 Z M22,25 C16.48,25 12,20.52 12,15 C12,9.48 16.48,5 22,5 C27.52,5 32,9.48 32,15 C32,20.52 27.52,25 22,25 Z M22,9 C18.69,9 16,11.69 16,15 C16,18.31 18.69,21 22,21 C25.31,21 28,18.31 28,15 C28,11.69 25.31,9 22,9 Z" id="Shape"></path>
        </g>
    </g>
</svg>