<svg xmlns="http://www.w3.org/2000/svg" version="1.1" xmlns:xlink="http://www.w3.org/1999/xlink" xmlns:svgjs="http://svgjs.com/svgjs" viewBox="0 0 20 20" width="20" height="20"><title>Exported from Streamline App (https://app.streamlineicons.com)</title><g transform="matrix(0.8333333333333334,0,0,0.8333333333333334,0,0)"><path d="M 0.75,8.248v-6c0-0.828,0.672-1.5,1.5-1.5h6 " stroke="#ffffff" fill="none" stroke-width="1.5" stroke-linecap="round" stroke-linejoin="round"></path><path d="M 23.25,8.248v-6c0-0.828-0.672-1.5-1.5-1.5h-6 " stroke="#ffffff" fill="none" stroke-width="1.5" stroke-linecap="round" stroke-linejoin="round"></path><path d="M 0.75,15.748v6 c0,0.828,0.672,1.5,1.5,1.5h6 " stroke="#ffffff" fill="none" stroke-width="1.5" stroke-linecap="round" stroke-linejoin="round"></path><path d="M 23.25,15.748v6c0,0.828-0.672,1.5-1.5,1.5h-6 " stroke="#ffffff" fill="none" stroke-width="1.5" stroke-linecap="round" stroke-linejoin="round"></path><path d="M 6.75,5.248h10.5c0.828,0,1.5,0.672,1.5,1.5v10.5 c0,0.828-0.672,1.5-1.5,1.5H6.75c-0.828,0-1.5-0.672-1.5-1.5v-10.5C5.25,5.92,5.922,5.248,6.75,5.248z" stroke="#ffffff" fill="none" stroke-width="1.5" stroke-linecap="round" stroke-linejoin="round"></path></g></svg>