<?xml version="1.0" encoding="UTF-8" standalone="no"?>
<svg width="800px" height="800px" viewBox="0 0 800 800" version="1.1" xmlns="http://www.w3.org/2000/svg" xmlns:xlink="http://www.w3.org/1999/xlink">
    <!-- Generator: Sketch 44.1 (41455) - http://www.bohemiancoding.com/sketch -->
    <title>future-logo</title>
    <desc>Created with Sketch.</desc>
    <defs></defs>
    <g id="Page-1" stroke="none" stroke-width="1" fill="none" fill-rule="evenodd">
        <g id="future-logo" fill-rule="nonzero">
            <g id="Layer_2">
                <polygon id="Shape" fill="#FF0032" points="0 0 0 800 800 800 800 0"></polygon>
                <path d="M699.648,623.084 L699.648,99.648 L99.647,99.648 L99.647,699.648 C269.982,655.247 471.713,623.259 699.648,623.084 L699.648,623.084 Z" id="Shape" fill="#FFFFFF"></path>
                <path d="M240.317,232.675 L240.317,210.764 L148.54,210.764 L148.54,343.562 L172.702,343.562 L172.702,290.176 L233.014,290.176 L233.014,268.266 L172.702,268.266 L172.702,232.675 L240.317,232.675 L240.317,232.675 Z M327.781,343.562 L327.781,246.163 L304.373,246.163 L304.373,297.674 C304.373,305.538 302.871,314.339 297.254,319.585 C294.442,322.396 290.698,324.454 285.265,324.454 C272.904,324.454 268.407,317.334 268.407,305.915 L268.407,246.163 L244.999,246.163 L244.999,311.16 C244.999,331.95 257.921,345.997 278.71,345.997 C291.076,345.997 301.935,340.375 306.62,330.82 L308.306,343.562 L327.781,343.562 L327.781,343.562 Z M405.517,342.248 L405.517,322.578 C399.146,323.332 395.209,323.516 390.34,323.516 C382.848,323.516 379.481,320.337 379.481,312.841 L379.481,265.454 L404.015,265.454 L404.015,246.162 L379.48,246.162 L379.48,215.633 L356.063,221.44 L356.063,246.163 L338.273,246.163 L338.273,265.455 L356.063,265.455 L356.063,314.899 C356.063,333.631 365.805,344.867 385.47,344.867 C392.402,344.866 398.957,343.93 405.517,342.248 L405.517,342.248 Z M497.289,343.562 L497.289,246.163 L473.881,246.163 L473.881,297.674 C473.881,305.538 472.379,314.339 466.756,319.585 C463.949,322.396 460.206,324.454 454.772,324.454 C442.412,324.454 437.915,317.334 437.915,305.915 L437.915,246.163 L414.507,246.163 L414.507,311.16 C414.507,331.95 427.429,345.997 448.218,345.997 C460.579,345.997 471.443,340.375 476.123,330.82 L477.813,343.562 L497.289,343.562 L497.289,343.562 Z M564.527,267.889 L564.527,245.409 C562.097,245.032 559.658,244.858 557.224,244.858 C545.795,244.858 534.188,249.534 529.691,260.769 L527.632,246.163 L507.78,246.163 L507.78,343.562 L531.377,343.562 L531.377,294.485 C531.377,278.757 539.994,266.952 556.476,266.952 C559.099,266.951 561.91,267.328 564.527,267.889 L564.527,267.889 Z M652.934,295.615 C653.306,283.433 651.62,272.381 644.504,261.706 C636.452,249.533 623.338,243.727 608.919,243.727 C595.621,243.727 585.129,248.596 577.826,256.093 C568.46,265.648 563.774,279.501 563.774,295.045 C563.774,310.967 569.02,324.646 578.762,334.008 C586.443,341.311 596.181,345.996 609.474,345.996 C621.844,345.996 634.017,342.064 642.257,332.316 C646.001,327.824 649.938,320.144 650.498,314.337 L628.022,314.337 C627.081,317.893 625.399,320.52 623.336,322.577 C619.965,325.949 615.844,327.263 609.101,327.263 C602.735,327.263 598.049,324.452 594.682,321.264 C589.996,316.772 587.379,309.652 587.563,302.164 L652.744,302.164 C652.745,300.098 652.934,295.615 652.934,295.615 L652.934,295.615 Z M629.521,285.123 L587.381,285.123 C587.565,278.757 589.062,274.256 592.434,269.946 C595.81,265.454 601.612,262.459 608.731,262.459 C615.474,262.459 620.343,264.701 623.527,268.072 C627.27,272.197 629.332,277.82 629.521,285.123 L629.521,285.123 Z" id="Shape" fill="#FF0032"></path>
                <path d="M277.488,444.945 L271.024,444.945 C269.562,453.236 263.098,459.831 253.711,459.831 C247.848,459.831 243.337,458.018 240.164,454.713 C234.675,448.983 233.46,441.656 233.46,433.731 C233.46,425.792 234.675,418.612 240.164,412.88 C243.337,409.561 247.848,407.63 253.711,407.63 C262.983,407.63 269.563,413.845 270.907,422.267 L277.245,422.267 C275.776,409.955 266.389,401.65 253.711,401.65 C246.137,401.65 240.041,404.574 235.771,408.844 C229.431,415.191 227.247,423.348 227.247,433.731 C227.247,444.097 229.432,452.271 235.771,458.619 C240.042,462.872 246.137,465.797 253.711,465.797 C266.515,465.796 275.901,456.775 277.488,444.945 M225.55,464.217 L225.55,458.865 C223.841,459.099 222.742,459.099 220.308,459.099 C215.184,459.099 213.955,455.941 213.955,451.787 L213.955,376.148 L207.858,376.148 L207.858,452.036 C207.858,460.927 212.252,464.963 220.051,464.963 C222.618,464.964 224.204,464.582 225.55,464.217 M192.489,433.73 C192.489,441.538 190.427,449.346 185.66,454.463 C182.487,457.753 178.35,459.83 172.619,459.83 C167.004,459.83 162.858,458.017 159.808,455.078 C154.194,449.828 152.125,442.752 152.125,433.729 C152.125,425.321 154.435,417.865 159.926,412.498 C162.982,409.56 167.003,407.629 172.368,407.629 C177.485,407.629 181.389,409.208 184.447,411.899 C190.062,416.887 192.489,425.061 192.489,433.73 M198.718,433.612 C198.718,423.13 195.546,413.361 188.71,407.396 C184.682,403.843 179.439,401.649 172.486,401.649 C164.32,401.649 155.531,406.401 152.249,413.961 L151.519,403.244 L146.153,403.244 L146.153,488.621 L152.25,488.621 L152.25,453.968 C155.532,460.928 163.962,465.796 172.62,465.796 C179.695,465.796 185.18,463.369 189.199,459.466 C195.662,453.368 198.718,443.601 198.718,433.612" id="Shape" fill="#FF0032"></path>
            </g>
        </g>
    </g>
</svg>