<?xml version="1.0" encoding="UTF-8"?>
<svg width="378px" height="497px" viewBox="0 0 378 497" version="1.1" xmlns="http://www.w3.org/2000/svg" xmlns:xlink="http://www.w3.org/1999/xlink">
    <!-- Generator: Sketch 62 (91390) - https://sketch.com -->
    <title>Handing PC</title>
    <desc>Created with Sketch.</desc>
    <defs>
        <rect id="path-1" x="0" y="0" width="496" height="379"></rect>
    </defs>
    <g id="Page-1" stroke="none" stroke-width="1" fill="none" fill-rule="evenodd">
        <g id="Handing-PC" transform="translate(190.000000, 248.500000) rotate(-270.000000) translate(-190.000000, -248.500000) translate(-58.000000, 59.000000)">
            <mask id="mask-2" fill="white">
                <use xlink:href="#path-1"></use>
            </mask>
            <g id="Rectangle"></g>
            <g id="Group_3432" mask="url(#mask-2)" fill-rule="nonzero">
                <g id="Group" transform="translate(0.155000, 41.012000)">
                    <g id="Group_2806" transform="translate(0.000000, 99.576000)" fill="#FFFFFF">
                        <path d="M-2.48863603e-06,12.488 L-2.48863603e-06,87.75 C-0.00240230702,91.5586991 1.73453869,95.1600139 4.71661755,97.5292754 C7.69869641,99.898537 11.5994459,100.776367 15.309,99.913 L57.028,90.213 L57.028,10.031 L15.309,0.331 C11.6006095,-0.53091237 7.70160513,0.346653162 4.72010264,2.71428826 C1.73860016,5.08192336 0.000581532048,8.68076312 -2.48863603e-06,12.488" id="Path_2849"></path>
                    </g>
                    <g id="Group_2807" transform="translate(11.290000, 99.587000)" fill="#A0ACAE">
                        <path d="M45.738,10.021 L45.738,90.197 L4.022,99.897 C2.70434534,100.201447 1.34595098,100.289598 -5.32907052e-15,100.158 L-5.32907052e-15,0.059 C1.34595098,-0.072597821 2.70434534,0.0155525839 4.022,0.32 L45.738,10.021 Z" id="Path_2850"></path>
                    </g>
                    <g id="Group_2808" transform="translate(17.856000, -0.000000)" fill="#FFFFFF">
                        <path d="M3.99,45.212 L68.629,1.567 C71.4067758,-0.308029331 74.9926082,-0.496884901 77.951975,1.07598548 C80.9113418,2.64885587 82.761,5.72661621 82.761,9.078 L82.761,290.313 C82.761,293.664078 80.9105416,296.741289 77.9514445,298.314016 C74.9923474,299.886743 71.4069117,299.698282 68.629,297.824 L3.99,254.179 C1.49420097,252.494193 -0.00115932173,249.679243 -6.7360514e-07,246.668 L-6.7360514e-07,52.723 C-0.00115932173,49.7117569 1.49420097,46.8968067 3.99,45.212" id="Path_2851"></path>
                    </g>
                    <g id="Group_2809" transform="translate(15.647000, 0.002000)" fill="#E3E7E7">
                        <path d="M6.74,43.354 L68.629,1.567 C71.4061934,-0.308475881 74.9917596,-0.497988383 77.9511812,1.07428287 C80.9106028,2.64655412 82.761,5.72384902 82.761,9.075 L82.761,290.31 C82.761,293.661384 80.9113418,296.739144 77.951975,298.312015 C74.9926082,299.884885 71.4067758,299.696029 68.629,297.821 L6.74,256.034 C2.52523284,253.187722 -9.02868762e-08,248.433819 -9.02868762e-08,243.348 L-9.02868762e-08,56.037 C-9.02868762e-08,50.9519786 2.52530134,46.1989531 6.74,43.354" id="Path_2852"></path>
                    </g>
                    <g id="Group_2810" transform="translate(29.481000, 9.781000)" fill="#444D4E">
                        <polygon id="Path_2853" points="0 39.335 59.71 0 59.71 279.83 0 240.494"></polygon>
                    </g>
                    <g id="Group_2811" transform="translate(29.481000, 9.781000)" fill="#323839">
                        <polygon id="Path_2854" points="0 39.335 59.71 0 59.71 89.795 0 164.989"></polygon>
                    </g>
                    <g id="Group_2812" transform="translate(15.647000, 43.041000)" fill="#FFFFFF">
                        <path d="M7.206,213.308 L6.741,212.994 C2.52630134,210.149047 0.000448519078,205.396021 0.000999909713,200.311 L0.000999909713,13 C0.000999909713,7.91431246 2.52663862,3.16064292 6.741,0.314 L7.206,0 L7.206,213.308 Z" id="Path_2855"></path>
                    </g>
                </g>
                <g id="Group_3422-Clipped" transform="translate(53.000000, 41.000000)">
                    <g id="Group_3422" transform="translate(0.775000, 0.000000)">
                        <g id="Group_3410" transform="translate(36.806000, 0.019000)" fill="#FFFFFF">
                            <path d="M10.19,9.07 L10.19,9.147 L7.884,7.716 C7.27256107,3.68517637 4.04760335,0.557163724 -4.4408921e-16,0.069 C2.5803379,-0.250454251 5.17376022,0.552196635 7.12252933,2.27338623 C9.07129844,3.99457583 10.1882116,6.46896318 10.19,9.069" id="Path_3461"></path>
                        </g>
                        <g id="Group_3411" transform="translate(36.809000, 289.544000)" fill="#FFFFFF">
                            <path d="M7.958,1.384 L10.185,0 L10.185,0.78 C10.1837534,3.37966096 9.06743343,5.8539033 7.11919772,7.57512852 C5.17096202,9.29635375 2.57799135,10.0991916 -0.002,9.78 C4.32605272,9.26150056 7.67081787,5.73352968 7.958,1.384" id="Path_3462"></path>
                        </g>
                        <g id="Group_3412" transform="translate(44.789000, 266.918000)" fill="#B7BFBE">
                            <path d="M0,14.77 L0,0.67 C0.71138026,0.372382807 1.45118749,0.1478942 2.208,-8.8817842e-16 L2.208,16.683 L0,14.77 Z" id="Path_3463"></path>
                        </g>
                        <g id="Group_3413" transform="translate(44.789000, 14.999000)" fill="#D1D9D8">
                            <path d="M2.208,0 L2.208,16.794 C1.45118749,16.6461058 0.71138026,16.4216172 0,16.124 L0,2.024 L1.636,0.88 L2.208,0 Z" id="Path_3464"></path>
                        </g>
                        <g id="Group_3414" transform="translate(7.336000, 282.089000)" fill="#B1BAB9">
                            <path d="M2.018,0.658 L25.135,16.471 L37.435,8.839 C37.1503645,13.190749 33.8042236,16.721409 29.474,17.239 C27.3102258,17.5107578 25.121945,16.9791657 23.324,15.745 L0,0 C0.721763593,0.0217615509 1.42213367,0.250128007 2.018,0.658" id="Path_3465"></path>
                        </g>
                        <g id="Group_3415" transform="translate(32.956000, 0.018000)" fill="#B1BAB9">
                            <path d="M11.735,7.716 L0,0.434 C1.24063802,0.0295415794 2.55545872,-0.0951102536 3.85,0.069 C7.89830141,0.556094809 11.1240971,3.68452344 11.735,7.716" id="Path_3466"></path>
                        </g>
                        <g id="Group_3416" transform="translate(35.571000, 13.350000)" fill="#B1BAB9">
                            <path d="M8.892,17.645 L7.1,16.913 L0,14.011 L0,0 C0.842729734,0.143343189 1.66152181,0.402812441 2.433,0.771 L9.218,3.671 L9.218,17.771 C9.111,17.727 8.993,17.691 8.892,17.644" id="Path_3467"></path>
                        </g>
                        <g id="Group_3417" transform="translate(35.572000, 267.588000)" fill="#B1BAB9">
                            <path d="M2.433,17.005 C1.66192801,17.3735749 0.84293874,17.6320967 7.77156117e-16,17.773 L7.77156117e-16,3.761 L5.309,1.591 L8.892,0.127 C8.992,0.08 9.111,0.044 9.218,0 L9.218,14.1 L2.433,17.005 Z" id="Path_3468"></path>
                        </g>
                        <g id="Group_3418" transform="translate(24.833000, 271.349000)" fill="#1E2020">
                            <path d="M0.904,8.928 C0.223093673,7.51356744 -0.0820403779,5.94760296 0.018,4.381 L10.739,0 L10.739,14.012 C6.69372784,14.700286 2.68169273,12.6263473 0.904,8.928" id="Path_3469"></path>
                        </g>
                        <g id="Group_3419" transform="translate(24.832000, 13.220000)" fill="#121313">
                            <path d="M0.018,9.76 C-0.158989555,6.95647101 0.95681235,4.22611695 3.04663842,2.34895763 C5.13646449,0.471798314 7.97046133,-0.345703417 10.739,0.13 L10.739,14.141 L0.018,9.76 Z" id="Path_3470"></path>
                        </g>
                        <g id="Group_3420" transform="translate(0.461000, 264.166000)" fill="#FAC7A1">
                            <path d="M41.051,2.058 L21.441,10.075 C21.2358546,13.3316142 22.7725869,16.4528836 25.4787623,18.2761321 C28.1849378,20.0993805 31.654868,20.3512808 34.596,18.938 L43.017,15.331 L51.951,17.531 L52.004,18.666 L29.062,32.904 L5.945,17.091 C4.26740541,15.9448166 1.98498264,16.3210353 0.764,17.945 C-0.301696239,19.3614625 -0.246510346,21.3265782 0.897,22.681 L21.441,47.001 L43.188,72.426 C44.8498974,73.8145353 47.1337381,74.193453 49.155,73.416 L82.39,62.835 C84.764,62.091 89.281,59.687 89.355,55.852 L106.535,55.852 L106.535,17.195 L86.551,17.195 C84.3678507,12.7700035 80.3609647,9.51920267 75.581,8.295 L49.513,1.417 C46.6997547,0.681269952 43.7213162,0.906887897 41.051,2.058" id="Path_3471"></path>
                        </g>
                        <g id="Group_3421" transform="translate(13.515000, 282.833000)" fill="#F8B582">
                            <polygon id="Path_3472" points="16.009 14.236 0.001 3.287 16.009 16.859 37.616 2.611 38.95 0.003"></polygon>
                        </g>
                    </g>
                </g>
                <g id="Group_3424-Clipped" transform="translate(74.000000, 305.000000)">
                    <g id="Group_3424" transform="translate(0.775000, 0.000000)">
                        <g id="Group_3423" transform="translate(0.902000, 0.166000)" fill="#F8B582">
                            <path d="M19.617,2.058 L-6.87156985e-05,10.075 C-0.041,10.745 18.279,4.675 18.279,4.675 C20.9486104,3.52556134 23.9253205,3.29929055 26.738,4.032 L52.81,10.911 C57.784,12.186 61.661,16.661 63.78,20.923 L83.446,20.923 L83.446,55.852 L85.094,55.852 L85.094,17.195 L65.117,17.195 C62.9338507,12.7700035 58.9269647,9.51920267 54.147,8.295 L28.072,1.417 C25.2609479,0.682880649 22.2852474,0.908477814 19.617,2.058" id="Path_3474"></path>
                        </g>
                        <polygon id="Path_3475" fill="#FF854A" points="85.441 58.113 456.798 58.113 463.043 14.898 85.441 14.898"></polygon>
                    </g>
                </g>
                <g id="Group_3427-Clipped" transform="translate(53.000000, 0.000000)">
                    <g id="Group_3427" transform="translate(0.775000, 0.000000)">
                        <g id="Group_3425" transform="translate(0.461000, 0.762000)" fill="#FAC7A1">
                            <path d="M41.051,72.724 L21.441,64.709 C21.2364273,61.4528408 22.7731883,58.3322354 25.4789884,56.5093069 C28.1847886,54.6863785 31.6541228,54.4343204 34.595,55.847 L43.016,59.454 L51.95,57.254 L52.003,56.119 L29.062,41.88 L5.945,57.698 C4.26740541,58.8441834 1.98498264,58.4679647 0.764,56.844 C-0.301696239,55.4275375 -0.246510346,53.4624218 0.897,52.108 L21.441,27.783 L43.188,2.358 C44.8492502,0.968055148 47.1338953,0.589003926 49.155,1.368 L82.39,11.949 C84.764,12.693 89.281,15.097 89.355,18.929 L106.535,18.929 L106.535,57.589 L86.551,57.589 C84.3678507,62.0139965 80.3609647,65.2647973 75.581,66.489 L49.513,73.367 C46.7002032,74.0984 43.7239243,73.872162 41.054,72.724" id="Path_3477"></path>
                        </g>
                        <g id="Group_3426" transform="translate(13.515000, 40.019000)" fill="#F8B582">
                            <polygon id="Path_3478" points="16.009 2.623 0.001 13.575 16.009 0 37.616 14.248 38.95 16.859"></polygon>
                        </g>
                    </g>
                </g>
                <g id="Group_3429-Clipped" transform="translate(74.000000, 17.000000)">
                    <g id="Group_3429" transform="translate(0.775000, 0.000000)">
                        <g id="Group_3428" transform="translate(0.902000, 2.691000)" fill="#F8B582">
                            <path d="M19.617,53.794 L-6.87156985e-05,45.779 C-0.041,45.109 18.279,51.179 18.279,51.179 C20.9489612,52.3270121 23.9251894,52.5532462 26.738,51.822 L52.809,44.94 C57.783,43.665 61.66,39.19 63.779,34.928 L83.446,34.928 L83.446,0 L85.094,0 L85.094,38.66 L65.117,38.66 C62.9338507,43.0849965 58.9269647,46.3357973 54.147,47.56 L28.072,54.437 C25.2604572,55.1674829 22.2857413,54.9412567 19.617,53.794" id="Path_3480"></path>
                        </g>
                        <polygon id="Path_3481" fill="#E76121" points="85.441 331.008 487.428 331.008 487.428 302.897 85.441 302.897"></polygon>
                        <polygon id="Path_3482" fill="#FF854A" points="85.441 43.815 421.506 43.815 421.506 0.605 85.441 0.605"></polygon>
                        <polygon id="Path_3483" fill="#E76121" points="85.441 28.711 443.48 28.711 443.48 0.605 85.441 0.605"></polygon>
                    </g>
                </g>
            </g>
        </g>
    </g>
</svg>