<?xml version="1.0" encoding="UTF-8"?>
<svg width="514px" height="524px" viewBox="0 0 514 524" version="1.1" xmlns="http://www.w3.org/2000/svg" xmlns:xlink="http://www.w3.org/1999/xlink">
    <!-- Generator: Sketch 62 (91390) - https://sketch.com -->
    <title>Handing PC longer</title>
    <desc>Created with Sketch.</desc>
    <defs>
        <rect id="path-1" x="0" y="0" width="514" height="541"></rect>
    </defs>
    <g id="Page-1" stroke="none" stroke-width="1" fill="none" fill-rule="evenodd">
        <g id="Handing-PC-longer" transform="translate(0.000000, -17.000000)">
            <mask id="mask-2" fill="white">
                <use xlink:href="#path-1"></use>
            </mask>
            <g id="Rectangle"></g>
            <g id="handing-pc-vertical" mask="url(#mask-2)">
                <g transform="translate(37.000000, 17.000000)" id="Handing-PC">
                    <g transform="translate(219.961538, 66.139535) rotate(90.000000) translate(-219.961538, -66.139535) translate(153.961538, -153.360465)">
                        <g id="Group_3432-Clipped" fill-rule="nonzero">
                            <g id="Group_3432" transform="translate(0.000000, 0.000000)">
                                <g id="Group" transform="translate(0.226063, 0.017538)">
                                    <g id="Group_2807" transform="translate(0.422957, 145.550231)" fill="#A0ACAE">
                                        <path d="M66.7075814,14.6460769 L66.7075814,131.826385 L5.86597342,146.003308 C3.94421131,146.448269 1.9630315,146.577105 -7.77229886e-15,146.384769 L-7.77229886e-15,0.0862307692 C1.9630315,-0.106104508 3.94421131,0.0227306995 5.86597342,0.467692308 L66.7075814,14.6460769 Z" id="Path_2850"></path>
                                    </g>
                                    <g id="Group_2808" transform="translate(9.999282, 0.000000)" fill="#FFFFFF">
                                        <path d="M5.81930233,66.0790769 L100.093458,2.29023077 C104.144766,-0.450196715 109.374601,-0.726216394 113.690754,1.57259416 C118.006907,3.87140473 120.704581,8.36966985 120.704581,13.2678462 L120.704581,424.303615 C120.704581,429.201345 118.00574,433.698807 113.689981,435.997408 C109.374221,438.296009 104.144964,438.020566 100.093458,435.281231 L5.81930233,371.492385 C2.17924992,369.029974 -0.001690838,364.915817 -1.96372724e-06,360.514769 L-1.96372724e-06,77.0566923 C-0.001690838,72.6556447 2.17924992,68.5414867 5.81930233,66.0790769" id="Path_2851"></path>
                                    </g>
                                    <g id="Group_2809" transform="translate(6.777518, 0.002923)" fill="#E3E7E7">
                                        <path d="M9.83009967,63.3635385 L100.093458,2.29023077 C104.143917,-0.450849365 109.373364,-0.727829175 113.689597,1.57010573 C118.005829,3.86804064 120.704581,8.36562549 120.704581,13.2634615 L120.704581,424.299231 C120.704581,429.197407 118.006907,433.695672 113.690754,435.994483 C109.374601,438.293293 104.144766,438.017273 100.093458,435.276846 L9.83009967,374.203538 C3.68298079,370.043594 -1.31680859e-07,363.095582 -1.31680859e-07,355.662462 L-1.31680859e-07,81.9002308 C-1.31680859e-07,74.4682764 3.68308069,67.5215468 9.83009967,63.3635385" id="Path_2852"></path>
                                    </g>
                                    <g id="Group_2810" transform="translate(26.954017, 14.295308)" fill="#444D4E">
                                        <polygon id="Path_2853" points="0 57.4896154 87.0853488 0 87.0853488 408.982308 0 351.491231"></polygon>
                                    </g>
                                    <g id="Group_2811" transform="translate(26.954017, 14.295308)" fill="#323839">
                                        <polygon id="Path_2854" points="0 57.4896154 87.0853488 0 87.0853488 131.238846 0 241.137769"></polygon>
                                    </g>
                                    <g id="Group_2812" transform="translate(6.777518, 62.906077)" fill="#FFFFFF">
                                        <path d="M10.5097475,311.757846 L9.83155814,311.298923 C3.68453916,307.140915 0.000654152409,300.194185 0.00145820844,292.762231 L0.00145820844,19 C0.00145820844,11.5670721 3.68503108,4.61940119 9.83155814,0.458923077 L10.5097475,0 L10.5097475,311.757846 Z" id="Path_2855"></path>
                                    </g>
                                </g>
                            </g>
                        </g>
                    </g>
                </g>
            </g>
            <g id="Group_3413" mask="url(#mask-2)">
                <g transform="translate(477.500000, 331.000000) rotate(-270.000000) translate(-477.500000, -331.000000) translate(245.000000, 294.000000)" id="Group-2">
                    <g transform="translate(-0.000137, 0.000000)">
                        <path d="M47.2081372,55 L47.2081372,71.794 C46.4513247,71.6461058 45.7115175,71.4216172 45.0001372,71.124 L45.0001372,57.024 L46.6361372,55.88 L47.2081372,55 Z" id="Path_3464" fill="#D1D9D8" fill-rule="nonzero"></path>
                        <path d="M44.6741372,70.996 L42.8821372,70.264 L35.7821372,67.362 L35.7821372,53.351 C36.6248669,53.4943432 37.443659,53.7538124 38.2151372,54.122 L45.0001372,57.022 L45.0001372,71.122 C44.8931372,71.078 44.7751372,71.042 44.6741372,70.995" id="Path_3467" fill="#B1BAB9" fill-rule="nonzero"></path>
                        <path d="M41.7231372,72.487 L22.1131372,64.472 C21.9085645,61.2158408 23.4453255,58.0952354 26.1511256,56.2723069 C28.8569258,54.4493785 32.32626,54.1973204 35.2671372,55.61 L43.6881372,59.217 L52.6221372,57.017 L52.6751372,55.882 L29.7341372,41.643 L6.6171372,57.461 C4.93954261,58.6071834 2.65711984,58.2309647 1.4361372,56.607 C0.370440962,55.1905375 0.425626855,53.2254218 1.5691372,51.871 L22.1131372,27.546 L43.8601372,2.121 C45.5213874,0.731055148 47.8060325,0.352003926 49.8271372,1.131 L83.0621372,11.712 C85.4361372,12.456 89.9531372,14.86 90.0271372,18.692 L107.207137,18.692 L107.207137,57.352 L87.2231372,57.352 C85.0399879,61.7769965 81.0331019,65.0277973 76.2531372,66.252 L50.1851372,73.13 C47.3723404,73.8614 44.3960615,73.635162 41.7261372,72.487" id="Path_3477" fill="#FAC7A1" fill-rule="nonzero"></path>
                        <polygon id="Path_3478" fill="#F8B582" fill-rule="nonzero" points="29.7351372 41.643 13.7271372 52.595 29.7351372 39.02 51.3421372 53.268 52.6761372 55.879"></polygon>
                        <path d="M41.7301372,72.486 L22.113,64.471 C22.0721372,63.801 40.3921372,69.871 40.3921372,69.871 C43.0620984,71.0190121 46.0383266,71.2452462 48.8511372,70.514 L74.9221372,63.632 C79.8961372,62.357 83.7731372,57.882 85.8921372,53.62 L105.559137,53.62 L105.559137,18.692 L107.207137,18.692 L107.207137,57.352 L87.2301372,57.352 C85.0469879,61.7769965 81.0401019,65.0277973 76.2601372,66.252 L50.1851372,73.129 C47.3735944,73.8594829 44.3988785,73.6332567 41.7301372,72.486" id="Path_3480" fill="#F8B582" fill-rule="nonzero"></path>
                        <polygon id="Path_3482" fill="#FF854A" fill-rule="nonzero" points="106.652137 59.816 442.717137 59.816 442.717137 16.606 106.652137 16.606"></polygon>
                        <polygon id="Path_3483" fill="#E76121" fill-rule="nonzero" points="106.652137 44.712 464.691137 44.712 464.691137 16.606 106.652137 16.606"></polygon>
                    </g>
                </g>
            </g>
            <g id="Group_3412" mask="url(#mask-2)">
                <g transform="translate(36.500000, 353.000000) rotate(-270.000000) translate(-36.500000, -353.000000) translate(-218.000000, 316.000000)" id="Group-3">
                    <g transform="translate(-0.000137, -0.000000)">
                        <path d="M45.0001372,16.77 L45.0001372,2.67 C45.7115175,2.37238281 46.4513247,2.1478942 47.2081372,2 L47.2081372,18.683 L45.0001372,16.77 Z" id="Path_3463" fill="#B7BFBE" fill-rule="nonzero"></path>
                        <path d="M38.2161372,19.675 C37.4450652,20.0435749 36.6260759,20.3020967 35.7831372,20.443 L35.7831372,6.431 L41.0921372,4.261 L44.6751372,2.797 C44.7751372,2.75 44.8941372,2.714 45.0011372,2.67 L45.0011372,16.77 L38.2161372,19.675 Z" id="Path_3468" fill="#B1BAB9" fill-rule="nonzero"></path>
                        <path d="M41.7231372,1.306 L22.1131372,9.323 C21.9079918,12.5796142 23.4447241,15.7008836 26.1508995,17.5241321 C28.857075,19.3473805 32.3270052,19.5992808 35.2681372,18.186 L43.6891372,14.579 L52.6231372,16.779 L52.6761372,17.914 L29.7341372,32.152 L6.6171372,16.339 C4.93954261,15.1928166 2.65711984,15.5690353 1.4361372,17.193 C0.370440962,18.6094625 0.425626855,20.5745782 1.5691372,21.929 L22.1131372,46.249 L43.8601372,71.674 C45.5220346,73.0625353 47.8058753,73.441453 49.8271372,72.664 L83.0621372,62.083 C85.4361372,61.339 89.9531372,58.935 90.0271372,55.1 L107.207137,55.1 L107.207137,16.443 L87.2231372,16.443 C85.0399879,12.0180035 81.0331019,8.76720267 76.2531372,7.543 L50.1851372,0.665 C47.3718919,-0.070730048 44.3934534,0.154887897 41.7231372,1.306" id="Path_3471" fill="#FAC7A1" fill-rule="nonzero"></path>
                        <polygon id="Path_3472" fill="#F8B582" fill-rule="nonzero" points="29.7351372 32.151 13.7271372 21.202 29.7351372 34.774 51.3421372 20.526 52.6761372 17.918"></polygon>
                        <path d="M41.7301372,1.306 L22.113,9.323 C22.0721372,9.993 40.3921372,3.923 40.3921372,3.923 C43.0617476,2.77356134 46.0384577,2.54729055 48.8511372,3.28 L74.9231372,10.159 C79.8971372,11.434 83.7741372,15.909 85.8931372,20.171 L105.559137,20.171 L105.559137,55.1 L107.207137,55.1 L107.207137,16.443 L87.2301372,16.443 C85.0469879,12.0180035 81.0401019,8.76720267 76.2601372,7.543 L50.1851372,0.665 C47.3740851,-0.069119351 44.3983846,0.156477814 41.7301372,1.306" id="Path_3474" fill="#F8B582" fill-rule="nonzero"></path>
                        <polygon id="Path_3475" fill="#FF854A" fill-rule="nonzero" points="106.652137 57.195 478.009137 57.195 484.254137 13.98 106.652137 13.98"></polygon>
                        <polygon id="Path_3481" fill="#E76121" fill-rule="nonzero" points="106.652137 42.09 508.639137 42.09 508.639137 13.979 106.652137 13.979"></polygon>
                    </g>
                </g>
            </g>
        </g>
    </g>
</svg>