<svg xmlns="http://www.w3.org/2000/svg" width="69.245" height="23.765" viewBox="0 0 69.245 23.765">
  <g id="Horisontal_Feide" transform="translate(0 0.025)">
    <rect id="Rectangle_7" data-name="Rectangle 7" width="2.582" height="6.199" transform="translate(17.045 12.376)" fill="#1f4698"/>
    <path id="Path_1" data-name="Path 1" d="M11.1,22.149H8.519v6.973H2.582V20.34H0v9.3H.012V31.7H19.627V29.121H11.1Z" transform="translate(0 -7.964)" fill="#1f4698"/>
    <circle id="Ellipse_1" data-name="Ellipse 1" cx="1.547" cy="1.547" r="1.547" transform="translate(8.264 8.51)" fill="#1f4698"/>
    <path id="Path_2" data-name="Path 2" d="M9.81,2.572a7.228,7.228,0,0,1,7.241,7.222h2.588A9.819,9.819,0,1,0,0,9.794H2.588A7.228,7.228,0,0,1,9.81,2.572Z" transform="translate(0 0)" fill="#1f4698"/>
    <path id="Path_3" data-name="Path 3" d="M48.886,17.867h-4.7V14.147h6.144V12.07H41.98V25.881h2.211V19.95h4.7Z" transform="translate(-16.416 -4.73)"/>
    <path id="Path_4" data-name="Path 4" d="M76.812,10.08A1.522,1.522,0,1,0,78.335,11.6,1.522,1.522,0,0,0,76.812,10.08Z" transform="translate(-29.441 -3.951)"/>
    <path id="Path_5" data-name="Path 5" d="M72.182,17.75v2.083h2.113v6.15H71.67v2.083H77.9V25.983H76.505V17.75Z" transform="translate(-28.026 -6.951)"/>
    <path id="Path_6" data-name="Path 6" d="M92.409,25.215V10.46H90.2v5.377l-.146-.177a2.491,2.491,0,0,0-2.016-1,3.67,3.67,0,0,0-3.587,3.977v2.874A3.676,3.676,0,0,0,88.037,25.5a2.5,2.5,0,0,0,2.016-1L90.2,24.3v.938Zm-2.223-2.8a2.034,2.034,0,0,1-1.748.98,1.723,1.723,0,0,1-1.772-1.9V18.62a1.723,1.723,0,0,1,1.772-1.9,2.034,2.034,0,0,1,1.754,1h0v4.652Z" transform="translate(-33.023 -4.1)"/>
    <path id="Path_7" data-name="Path 7" d="M64.1,23.679V20.921a3.989,3.989,0,0,0-7.959,0v3.4a3.792,3.792,0,0,0,4.025,3.715,3.983,3.983,0,0,0,3.721-2.265l-2.046-.877a1.675,1.675,0,0,1-1.675,1.175,1.729,1.729,0,0,1-1.827-1.748v-.639Zm-5.749-2.759a1.772,1.772,0,0,1,3.538,0v.81H58.351Z" transform="translate(-21.953 -6.736)"/>
    <path id="Path_8" data-name="Path 8" d="M108.6,23.679V20.921a3.989,3.989,0,0,0-7.959,0v3.4a3.792,3.792,0,0,0,4.025,3.715,3.989,3.989,0,0,0,3.721-2.265l-2.046-.877a1.681,1.681,0,0,1-1.675,1.175,1.723,1.723,0,0,1-1.827-1.748v-.639Zm-5.749-2.759a1.772,1.772,0,0,1,3.538,0v.81h-3.538Z" transform="translate(-39.354 -6.736)"/>
  </g>
</svg>
