<?xml version="1.0" encoding="UTF-8"?>
<svg width="70px" height="24px" viewBox="0 0 70 24" version="1.1" xmlns="http://www.w3.org/2000/svg" xmlns:xlink="http://www.w3.org/1999/xlink">
    <!-- Generator: Sketch 52.6 (67491) - http://www.bohemiancoding.com/sketch -->
    <title>horizontal_feide_logo</title>
    <desc>Created with Sketch.</desc>
    <g id="Page-1" stroke="none" stroke-width="1" fill="none" fill-rule="evenodd">
        <g id="horizontal_feide_logo" transform="translate(0.000000, -1.000000)">
            <g id="Group" fill="#1F4698">
                <rect id="Rectangle_7" x="17.045" y="13.401" width="2.582" height="6.199"></rect>
                <polygon id="Path_1" points="11.1 15.21 8.519 15.21 8.519 22.183 2.582 22.183 2.582 13.401 0 13.401 0 22.701 0.012 22.701 0.012 24.761 19.627 24.761 19.627 22.182 11.1 22.182"></polygon>
                <circle id="Ellipse_1" cx="9.811" cy="11.082" r="1.547"></circle>
                <path d="M9.81,3.597 C11.728197,3.59354934 13.5690986,4.35272137 14.9272516,5.70731064 C16.2854046,7.06189991 17.0494108,8.90080056 17.051,10.819 L19.639,10.819 C19.639,5.3958399 15.2426601,0.9995 9.8195,0.9995 C4.3963399,0.9995 6.64145566e-16,5.3958399 0,10.819 L2.588,10.819 C2.59130845,6.83177074 5.82277074,3.60030845 9.81,3.597 Z" id="Path_2"></path>
            </g>
            <g id="Group-2" transform="translate(25.000000, 5.000000)" fill="#000000">
                <polygon id="Path_3" points="7.47 7.162 2.77 7.162 2.77 3.442 8.914 3.442 8.914 1.365 0.564 1.365 0.564 15.176 2.775 15.176 2.775 9.245 7.475 9.245"></polygon>
                <path d="M22.371,0.154 C21.7553177,0.154405053 21.2005223,0.525701556 20.9653784,1.09471137 C20.7302346,1.66372118 20.8610641,2.3183529 21.2968463,2.75327668 C21.7326285,3.18820046 22.3875169,3.31773901 22.956062,3.08147366 C23.524607,2.84520831 23.8948089,2.28968186 23.894,1.674 C23.8928961,0.833813192 23.2111874,0.153447246 22.371,0.154 Z" id="Path_4"></path>
                <polygon id="Path_5" points="19.156 4.824 19.156 6.907 21.269 6.907 21.269 13.057 18.644 13.057 18.644 15.14 24.874 15.14 24.874 13.057 23.479 13.057 23.479 4.824"></polygon>
                <path d="M34.386,15.14 L34.386,0.385 L32.177,0.385 L32.177,5.762 L32.031,5.585 C31.5564452,4.94981905 30.8078523,4.57849324 30.015,4.585 C29.0005463,4.60437511 28.0393795,5.04286726 27.3598165,5.79631648 C26.6802534,6.5497657 26.3429392,7.55093306 26.428,8.562 L26.428,11.436 C26.3412559,12.4484593 26.6774844,13.4516612 27.356836,14.2073594 C28.0361877,14.9630576 28.998052,15.4038302 30.014,15.425 C30.8065188,15.4300601 31.5544952,15.0590401 32.03,14.425 L32.177,14.225 L32.177,15.163 L34.386,15.14 Z M32.163,12.34 C31.7928444,12.9509493 31.1293287,13.3229432 30.415,13.32 C29.9171905,13.3368298 29.4364553,13.1374072 29.0967334,12.7731455 C28.7570114,12.4088838 28.5915475,11.9154293 28.643,11.42 L28.643,8.545 C28.5915475,8.0495707 28.7570114,7.55611616 29.0967334,7.1918545 C29.4364553,6.82759283 29.9171905,6.6281702 30.415,6.645 C31.1355165,6.64413976 31.80272,7.02452941 32.169,7.645 L32.169,12.297 L32.163,12.34 Z" id="Path_6" fill-rule="nonzero"></path>
                <path d="M17.147,10.968 L17.147,8.21 C17.0024107,6.11870918 15.2637832,4.49613769 13.1675,4.49613769 C11.0712168,4.49613769 9.33258925,6.11870918 9.188,8.21 L9.188,11.61 C9.2070344,12.6439699 9.64753368,13.6253113 10.4074632,14.3267121 C11.1673928,15.0281129 12.1808198,15.3887184 13.213,15.325 C14.7928927,15.3752443 16.2529941,14.4864699 16.934,13.06 L14.888,12.183 C14.6615418,12.9097861 13.9734693,13.3924638 13.213,13.358 C12.7343896,13.3852096 12.2659648,13.2124902 11.9195835,12.8810866 C11.5732023,12.549683 11.3799592,12.0893452 11.386,11.61 L11.386,10.971 L17.147,10.968 Z M11.398,8.209 C11.4525942,7.27197532 12.2283862,6.54006794 13.167,6.54006794 C14.1056138,6.54006794 14.8814058,7.27197532 14.936,8.209 L14.936,9.019 L11.398,9.019 L11.398,8.209 Z" id="Path_7" fill-rule="nonzero"></path>
                <path d="M44.246,10.968 L44.246,8.21 C44.1014107,6.11870918 42.3627832,4.49613769 40.2665,4.49613769 C38.1702168,4.49613769 36.4315893,6.11870918 36.287,8.21 L36.287,11.61 C36.3060344,12.6439699 36.7465337,13.6253113 37.5064632,14.3267121 C38.2663928,15.0281129 39.2798198,15.3887184 40.312,15.325 C41.8914799,15.3736785 43.3507927,14.485384 44.033,13.06 L41.987,12.183 C41.7587574,12.9084817 41.0718502,13.3903419 40.312,13.358 C39.8329178,13.3870345 39.3634374,13.2149226 39.0166386,12.8831194 C38.6698398,12.5513163 38.477157,12.0898971 38.485,11.61 L38.485,10.971 L44.246,10.968 Z M38.497,8.209 C38.5515942,7.27197532 39.3273862,6.54006794 40.266,6.54006794 C41.2046138,6.54006794 41.9804058,7.27197532 42.035,8.209 L42.035,9.019 L38.497,9.019 L38.497,8.209 Z" id="Path_8" fill-rule="nonzero"></path>
            </g>
        </g>
    </g>
</svg>