<?xml version="1.0" encoding="UTF-8"?> <svg xmlns="http://www.w3.org/2000/svg" xmlns:xlink="http://www.w3.org/1999/xlink" width="160px" height="160px" viewBox="0 0 160 160"><!-- Generator: Sketch 53.2 (72643) - https://sketchapp.com --><title>Listen</title><desc>Created with Sketch.</desc><g id="Page-1" stroke="none" stroke-width="1" fill="none" fill-rule="evenodd"><g id="Artboard" transform="translate(-395.000000, -169.000000)"><g id="Listen" transform="translate(395.000000, 169.000000)"><circle id="Oval" fill="#C5E9D3" cx="80" cy="80" r="80"></circle><g id="listen" transform="translate(40.000000, 48.000000)" fill="#000000" fill-rule="nonzero"><path d="M4.5,32.9 C4.2,34.1 4,35.4 3.8,36.7 C4.7,35.9 5.8,35.2 6.9,34.8 C5.9,34.3 5.1,33.7 4.5,32.9 Z M9,58.5 L9,37.3 C5.8,38 3.4,40.7 3.2,43.9 C3.2,44 3.2,44.2 3.2,44.4 L3.2,51.4 C3.2,54.8 5.7,57.7 9,58.5 Z M70.8,58.5 C74.2,57.7 76.6,54.8 76.6,51.4 L76.6,44.4 C76.6,44.2 76.6,44 76.6,43.9 C76.4,40.7 74,38.1 70.8,37.3 L70.8,58.5 Z M9.3,61.6 C4.1,60.9 0.3,56.5 0.3,51.4 L0.3,44.4 C0.3,44.2 0.3,44 0.3,43.8 C0.3,38.3 1.2,32.9 2.8,28 C8.4,11.2 22.6,0.8 39.9,0.7 L40,0.7 C57.3,0.8 71.5,11.2 77.1,28 C78.8,33 79.6,38.3 79.6,43.9 C79.6,44.1 79.6,44.3 79.6,44.5 L79.6,51.5 C79.6,56.6 75.7,61 70.6,61.7 C70,63 68.7,64 67.1,64 C65.1,64 63.4,62.3 63.4,60.3 L63.4,35.4 C63.4,34.4 63.8,33.5 64.5,32.8 C65.2,32.1 66.1,31.7 67.1,31.7 C68.1,31.7 69,32.1 69.6,32.7 C69.6,32.7 69.7,32.7 69.7,32.7 C71.9,32.3 73.5,30.9 73.9,29.1 C74,29 74,28.7 74,28.4 C73.6,27.3 73.2,26.3 72.8,25.3 C67.5,16.7 55.5,8.9 39.9,8.9 C24.2,8.9 12.2,16.8 6.9,25.4 C6.5,26.4 6.1,27.4 5.7,28.4 C5.7,28.7 5.7,28.9 5.8,29.2 C6.2,31 7.8,32.4 10,32.8 C10,32.8 10.1,32.8 10.1,32.8 C10.8,32.1 11.7,31.8 12.7,31.8 C13.7,31.8 14.6,32.2 15.3,32.9 C16,33.6 16.4,34.5 16.4,35.5 L16.4,60.4 C16.4,62.4 14.8,64.1 12.7,64.1 C11.1,64 9.8,63 9.3,61.6 Z M76.1,36.7 C75.9,35.4 75.7,34.1 75.4,32.9 C74.7,33.7 73.9,34.3 73,34.8 C74.1,35.3 75.2,35.9 76.1,36.7 Z" id="Shape"></path><g id="Group" transform="translate(18.000000, 37.000000)"><g id="Shape"><path d="M12.2,10.9 C12.2,10.1 12.9,9.4 13.7,9.4 C14.5,9.4 15.2,10.1 15.2,10.9 C15.2,11.7 14.5,12.4 13.7,12.4 C12.8,12.4 12.2,11.7 12.2,10.9 Z M6.2,10.9 C6.2,10.1 6.9,9.4 7.7,9.4 C8.5,9.4 9.2,10.1 9.2,10.9 C9.2,11.7 8.5,12.4 7.7,12.4 C6.8,12.4 6.2,11.7 6.2,10.9 Z M0.2,10.9 C0.2,10.1 0.9,9.4 1.7,9.4 C2.5,9.4 3.2,10.1 3.2,10.9 C3.2,11.7 2.5,12.4 1.7,12.4 C0.8,12.4 0.2,11.7 0.2,10.9 Z"></path><path d="M4.8,7.7 C4.2,7.1 4.2,6.2 4.8,5.6 C5.4,5 6.3,5 6.9,5.6 C7.5,6.2 7.5,7.1 6.9,7.7 C6.6,8 6.2,8.1 5.8,8.1 C5.5,8.1 5.1,8 4.8,7.7 Z M9,3.4 C8.4,2.8 8.4,1.9 9,1.3 C9.6,0.7 10.5,0.7 11.1,1.3 C11.7,1.9 11.7,2.8 11.1,3.4 C10.8,3.7 10.4,3.9 10,3.9 C9.7,3.8 9.3,3.7 9,3.4 Z"></path><path d="M5.9,13.7 C6.3,13.7 6.7,13.8 7,14.1 C7.6,14.7 7.6,15.6 7,16.2 C6.4,16.8 5.5,16.8 4.9,16.2 C4.3,15.6 4.3,14.7 4.9,14.1 C5.1,13.9 5.5,13.7 5.9,13.7 Z M10,18 C10.4,18 10.8,18.2 11.1,18.5 C11.7,19.1 11.7,20 11.1,20.6 C10.5,21.2 9.6,21.2 9,20.6 C8.4,20 8.4,19.1 9,18.5 C9.3,18.2 9.7,18 10,18 Z"></path></g><g id="Shape" transform="translate(28.000000, 0.000000)"><path d="M3.7,10.9 C3.7,11.7 3,12.4 2.2,12.4 C1.4,12.4 0.7,11.7 0.7,10.9 C0.7,10.1 1.4,9.4 2.2,9.4 C3,9.4 3.7,10.1 3.7,10.9 Z M9.7,10.9 C9.7,11.7 9,12.4 8.2,12.4 C7.4,12.4 6.7,11.7 6.7,10.9 C6.7,10.1 7.4,9.4 8.2,9.4 C9,9.4 9.7,10.1 9.7,10.9 Z M15.7,10.9 C15.7,11.7 15,12.4 14.2,12.4 C13.4,12.4 12.7,11.7 12.7,10.9 C12.7,10.1 13.4,9.4 14.2,9.4 C15,9.4 15.7,10.1 15.7,10.9 Z"></path><path d="M11,14.1 C11.6,14.7 11.6,15.6 11,16.2 C10.4,16.8 9.5,16.8 8.9,16.2 C8.3,15.6 8.3,14.7 8.9,14.1 C9.2,13.8 9.6,13.7 10,13.7 C10.3,13.7 10.7,13.9 11,14.1 Z M6.8,18.4 C7.4,19 7.4,19.9 6.8,20.5 C6.2,21.1 5.3,21.1 4.7,20.5 C4.1,19.9 4.1,19 4.7,18.4 C5,18.1 5.4,17.9 5.8,17.9 C6.2,18 6.5,18.2 6.8,18.4 Z"></path><path d="M10,8.1 C9.6,8.1 9.2,8 8.9,7.7 C8.3,7.1 8.3,6.2 8.9,5.6 C9.5,5 10.4,5 11,5.6 C11.6,6.2 11.6,7.1 11,7.7 C10.7,8 10.3,8.1 10,8.1 Z M5.8,3.8 C5.4,3.8 5,3.6 4.7,3.3 C4.1,2.7 4.1,1.8 4.7,1.2 C5.3,0.6 6.2,0.6 6.8,1.2 C7.4,1.8 7.4,2.7 6.8,3.3 C6.5,3.7 6.2,3.8 5.8,3.8 Z"></path></g></g></g></g></g></g></svg> 