<?xml version="1.0" encoding="UTF-8"?> <svg xmlns="http://www.w3.org/2000/svg" xmlns:xlink="http://www.w3.org/1999/xlink" width="684px" height="96px" viewBox="0 0 684 96" version="1.1"><title>logo-2019-svart</title><g id="Page-1" stroke="none" stroke-width="1" fill="none" fill-rule="evenodd"><g id="logo-2019-svart" fill="#000000" fill-rule="nonzero"><path d="M22.571,94 C19.0149822,94 16.3268424,93.0051766 14.5065,91.0155 C12.6861576,89.0258234 11.776,86.4223494 11.776,83.205 L11.776,37.358 L0.981,37.358 L0.981,28.468 L7.077,28.468 C9.27834434,28.468 10.7811626,28.0235044 11.5855,27.1345 C12.3898374,26.2454956 12.792,24.7003443 12.792,22.499 L12.792,10.307 L21.936,10.307 L21.936,28.468 L36.287,28.468 L36.287,37.358 L21.936,37.358 L21.936,85.11 L35.271,85.11 L35.271,94 L22.571,94 Z M76.8,95.524 C72.3126442,95.524 68.2698513,94.7196747 64.6715,93.111 C61.0731487,91.5023253 57.9828462,89.1951817 55.4005,86.1895 C52.8181538,83.1838183 50.828507,79.585521 49.4315,75.3945 C48.034493,71.203479 47.336,66.4833596 47.336,61.234 C47.336,56.0693075 48.034493,51.3703545 49.4315,47.137 C50.828507,42.9036455 52.8181538,39.2841817 55.4005,36.2785 C57.9828462,33.2728183 61.0731487,30.9656747 64.6715,29.357 C68.2698513,27.7483253 72.3126442,26.944 76.8,26.944 C81.2026887,26.944 85.1396493,27.7483253 88.611,29.357 C92.0823507,30.9656747 95.0456544,33.1881525 97.501,36.0245 C99.9563456,38.8608475 101.84016,42.2263139 103.1525,46.121 C104.46484,50.0156861 105.121,54.29131 105.121,58.948 L105.121,63.774 L58.004,63.774 L58.004,66.822 C58.004,69.616014 58.4484956,72.2194879 59.3375,74.6325 C60.2265044,77.0455121 61.4964917,79.1409911 63.1475,80.919 C64.7985083,82.6970089 66.8304879,84.0939949 69.2435,85.11 C71.6565121,86.1260051 74.3869848,86.634 77.435,86.634 C81.5836874,86.634 85.2031512,85.6603431 88.2935,83.713 C91.3838488,81.7656569 93.7756582,78.9716849 95.469,75.331 L102.708,80.538 C100.591323,85.0253558 97.2893558,88.6448196 92.802,91.3965 C88.3146442,94.1481804 82.9806976,95.524 76.8,95.524 Z M76.8,35.453 C74.005986,35.453 71.4660114,35.9398285 69.18,36.9135 C66.8939886,37.8871715 64.9255083,39.2629911 63.2745,41.041 C61.6234917,42.8190089 60.332338,44.9144879 59.401,47.3275 C58.469662,49.7405121 58.004,52.3863189 58.004,55.265 L58.004,56.154 L94.199,56.154 L94.199,54.757 C94.199,48.9149708 92.6115159,44.2371842 89.4365,40.7235 C86.2614841,37.2098158 82.0493596,35.453 76.8,35.453 Z M121.885,94 L121.885,28.468 L132.045,28.468 L132.045,39.136 L132.553,39.136 C133.315004,37.4426582 134.182828,35.8551741 135.1565,34.3735 C136.130172,32.8918259 137.315493,31.6006722 138.7125,30.5 C140.109507,29.3993278 141.739324,28.5315032 143.602,27.8965 C145.464676,27.2614968 147.665987,26.944 150.206,26.944 C154.524022,26.944 158.503315,27.9811563 162.144,30.0555 C165.784685,32.1298437 168.493991,35.537643 170.272,40.279 L170.526,40.279 C171.711339,36.7229822 173.933817,33.6115133 177.1935,30.9445 C180.453183,28.2774867 184.876972,26.944 190.465,26.944 C197.1537,26.944 202.381814,29.1241449 206.1495,33.4845 C209.917186,37.8448551 211.801,44.0042935 211.801,51.963 L211.801,94 L201.641,94 L201.641,53.741 C201.641,47.8989708 200.498011,43.4963482 198.212,40.533 C195.925989,37.5696518 192.285358,36.088 187.29,36.088 C185.25799,36.088 183.331842,36.3419975 181.5115,36.85 C179.691158,37.3580025 178.061341,38.1199949 176.622,39.136 C175.182659,40.1520051 174.039671,41.4431588 173.193,43.0095 C172.346329,44.5758412 171.923,46.4173227 171.923,48.534 L171.923,94 L161.763,94 L161.763,53.741 C161.763,47.8989708 160.620011,43.4963482 158.334,40.533 C156.047989,37.5696518 152.492024,36.088 147.666,36.088 C145.63399,36.088 143.686676,36.3419975 141.824,36.85 C139.961324,37.3580025 138.310341,38.1199949 136.871,39.136 C135.431659,40.1520051 134.267504,41.4431588 133.3785,43.0095 C132.489496,44.5758412 132.045,46.4173227 132.045,48.534 L132.045,94 L121.885,94 Z M280.381,94 C276.570981,94 273.840508,92.9840102 272.1895,90.952 C270.538492,88.9199898 269.501335,86.3800152 269.078,83.332 L268.443,83.332 C267.003659,87.3960203 264.633017,90.4439898 261.331,92.476 C258.028983,94.5080102 254.092023,95.524 249.52,95.524 C242.577299,95.524 237.179853,93.7460178 233.3275,90.19 C229.475147,86.6339822 227.549,81.8080305 227.549,75.712 C227.549,69.5313024 229.813811,64.7900165 234.3435,61.488 C238.873189,58.1859835 245.921619,56.535 255.489,56.535 L268.443,56.535 L268.443,50.058 C268.443,45.4013101 267.173013,41.8453456 264.633,39.39 C262.092987,36.9346544 258.19836,35.707 252.949,35.707 C248.969647,35.707 245.646513,36.5959911 242.9795,38.374 C240.312487,40.1520089 238.090009,42.5226518 236.312,45.486 L230.216,39.771 C231.994009,36.2149822 234.830314,33.1881792 238.725,30.6905 C242.619686,28.1928208 247.530304,26.944 253.457,26.944 C261.415706,26.944 267.596311,28.8913139 271.999,32.786 C276.401689,36.6806861 278.603,42.0992986 278.603,49.042 L278.603,85.11 L286.096,85.11 L286.096,94 L280.381,94 Z M251.171,86.888 C253.711013,86.888 256.039323,86.5916696 258.156,85.999 C260.272677,85.4063304 262.092992,84.5596722 263.617,83.459 C265.141008,82.3583278 266.326329,81.0883405 267.173,79.649 C268.019671,78.2096595 268.443,76.6433418 268.443,74.95 L268.443,64.155 L254.981,64.155 C249.138971,64.155 244.884513,65.0016582 242.2175,66.695 C239.550487,68.3883418 238.217,70.8436506 238.217,74.061 L238.217,76.728 C238.217,79.9453494 239.381155,82.4429911 241.7095,84.221 C244.037845,85.9990089 247.191647,86.888 251.171,86.888 Z M298.542,0.02 L317.338,0.02 L317.338,38.501 L317.973,38.501 C318.904338,34.775648 321.04215,31.7276785 324.3865,29.357 C327.73085,26.9863215 331.561978,25.801 335.88,25.801 C344.346709,25.801 350.738978,28.7643037 355.057,34.691 C359.375022,40.6176963 361.534,49.2536099 361.534,60.599 C361.534,71.9443901 359.375022,80.6014702 355.057,86.5705 C350.738978,92.5395298 344.346709,95.524 335.88,95.524 C333.678656,95.524 331.604343,95.2065032 329.657,94.5715 C327.709657,93.9364968 325.952841,93.0475057 324.3865,91.9045 C322.820159,90.7614943 321.486672,89.4068412 320.386,87.8405 C319.285328,86.2741588 318.481003,84.6020089 317.973,82.824 L317.338,82.824 L317.338,94 L298.542,94 L298.542,0.02 Z M329.657,80.284 C333.213018,80.284 336.155155,79.0351792 338.4835,76.5375 C340.811845,74.0398208 341.976,70.6743545 341.976,66.441 L341.976,54.884 C341.976,50.6506455 340.811845,47.2851792 338.4835,44.7875 C336.155155,42.2898208 333.213018,41.041 329.657,41.041 C326.100982,41.041 323.158845,41.9088247 320.8305,43.6445 C318.502155,45.3801753 317.338,47.7719848 317.338,50.82 L317.338,70.505 C317.338,73.5530152 318.502155,75.9448247 320.8305,77.6805 C323.158845,79.4161753 326.100982,80.284 329.657,80.284 Z M402.809,95.524 C397.898309,95.524 393.516853,94.7196747 389.6645,93.111 C385.812147,91.5023253 382.552513,89.1740152 379.8855,86.126 C377.218487,83.0779848 375.165341,79.3950216 373.726,75.077 C372.286659,70.7589784 371.567,65.9330267 371.567,60.599 C371.567,55.2649733 372.286659,50.4390216 373.726,46.121 C375.165341,41.8029784 377.218487,38.1411817 379.8855,35.1355 C382.552513,32.1298183 385.812147,29.8226747 389.6645,28.214 C393.516853,26.6053253 397.898309,25.801 402.809,25.801 C407.719691,25.801 412.101147,26.6053253 415.9535,28.214 C419.805853,29.8226747 423.065487,32.1298183 425.7325,35.1355 C428.399513,38.1411817 430.452659,41.8029784 431.892,46.121 C433.331341,50.4390216 434.051,55.2649733 434.051,60.599 C434.051,65.9330267 433.331341,70.7589784 431.892,75.077 C430.452659,79.3950216 428.399513,83.0779848 425.7325,86.126 C423.065487,89.1740152 419.805853,91.5023253 415.9535,93.111 C412.101147,94.7196747 407.719691,95.524 402.809,95.524 Z M402.809,80.665 C406.534352,80.665 409.41299,79.5220114 411.445,77.236 C413.47701,74.9499886 414.493,71.6903545 414.493,67.457 L414.493,53.868 C414.493,49.6346455 413.47701,46.3750114 411.445,44.089 C409.41299,41.8029886 406.534352,40.66 402.809,40.66 C399.083648,40.66 396.20501,41.8029886 394.173,44.089 C392.14099,46.3750114 391.125,49.6346455 391.125,53.868 L391.125,67.457 C391.125,71.6903545 392.14099,74.9499886 394.173,77.236 C396.20501,79.5220114 399.083648,80.665 402.809,80.665 Z M447.386,0.02 L466.182,0.02 L466.182,55.519 L466.944,55.519 L475.199,43.2 L488.534,27.325 L509.362,27.325 L487.137,52.852 L511.902,94 L489.55,94 L474.564,65.806 L466.182,75.204 L466.182,94 L447.386,94 L447.386,0.02 Z M529.174,95.524 C526.464653,95.524 524.496173,94.8466734 523.2685,93.492 C522.040827,92.1373266 521.427,90.3593443 521.427,88.158 L521.427,86.507 C521.427,84.3056557 522.040827,82.5276734 523.2685,81.173 C524.496173,79.8183266 526.464653,79.141 529.174,79.141 C531.883347,79.141 533.851827,79.8183266 535.0795,81.173 C536.307173,82.5276734 536.921,84.3056557 536.921,86.507 L536.921,88.158 C536.921,90.3593443 536.307173,92.1373266 535.0795,93.492 C533.851827,94.8466734 531.883347,95.524 529.174,95.524 Z M557.241,94 L557.241,28.468 L567.401,28.468 L567.401,39.136 L567.909,39.136 C569.517675,35.410648 571.782485,32.4473443 574.7035,30.246 C577.624515,28.0446557 581.540309,26.944 586.451,26.944 C593.224367,26.944 598.57948,29.1241449 602.5165,33.4845 C606.45352,37.8448551 608.422,44.0042935 608.422,51.963 L608.422,94 L598.262,94 L598.262,53.741 C598.262,41.9722745 593.30905,36.088 583.403,36.088 C581.37099,36.088 579.40251,36.3419975 577.4975,36.85 C575.59249,37.3580025 573.878008,38.1199949 572.354,39.136 C570.829992,40.1520051 569.623504,41.4431588 568.7345,43.0095 C567.845496,44.5758412 567.401,46.4173227 567.401,48.534 L567.401,94 L557.241,94 Z M654.142,95.524 C649.739311,95.524 645.717685,94.7196747 642.077,93.111 C638.436315,91.5023253 635.324846,89.1951817 632.7425,86.1895 C630.160154,83.1838183 628.149341,79.585521 626.71,75.3945 C625.270659,71.203479 624.551,66.4833596 624.551,61.234 C624.551,56.0693075 625.270659,51.3703545 626.71,47.137 C628.149341,42.9036455 630.160154,39.2841817 632.7425,36.2785 C635.324846,33.2728183 638.436315,30.9656747 642.077,29.357 C645.717685,27.7483253 649.739311,26.944 654.142,26.944 C658.544689,26.944 662.545149,27.7483253 666.1435,29.357 C669.741851,30.9656747 672.85332,33.2728183 675.478,36.2785 C678.10268,39.2841817 680.134659,42.9036455 681.574,47.137 C683.013341,51.3703545 683.733,56.0693075 683.733,61.234 C683.733,66.4833596 683.013341,71.203479 681.574,75.3945 C680.134659,79.585521 678.10268,83.1838183 675.478,86.1895 C672.85332,89.1951817 669.741851,91.5023253 666.1435,93.111 C662.545149,94.7196747 658.544689,95.524 654.142,95.524 Z M654.142,86.507 C659.645361,86.507 664.132649,84.8136836 667.604,81.427 C671.075351,78.0403164 672.811,72.8757014 672.811,65.933 L672.811,56.535 C672.811,49.5922986 671.075351,44.4276836 667.604,41.041 C664.132649,37.6543164 659.645361,35.961 654.142,35.961 C648.638639,35.961 644.151351,37.6543164 640.68,41.041 C637.208649,44.4276836 635.473,49.5922986 635.473,56.535 L635.473,65.933 C635.473,72.8757014 637.208649,78.0403164 640.68,81.427 C644.151351,84.8136836 648.638639,86.507 654.142,86.507 Z" id="temabok.no"></path></g></g></svg> 