<?xml version="1.0" encoding="UTF-8" standalone="no"?>
<svg width="16px" height="18px" viewBox="0 0 16 18" version="1.1" xmlns="http://www.w3.org/2000/svg" xmlns:xlink="http://www.w3.org/1999/xlink">
    <!-- Generator: Sketch 44 (41411) - http://www.bohemiancoding.com/sketch -->
    <title>ic_money_off_black_48px</title>
    <desc>Created with Sketch.</desc>
    <defs></defs>
    <g id="Page-1" stroke="none" stroke-width="1" fill="none" fill-rule="evenodd">
        <g id="ic_money_off_black_48px" fill-rule="nonzero" fill="#FFFFFF">
            <path d="M8.5,3.9 C10.28,3.9 10.94,4.75 11,6 L13.21,6 C13.14,4.28 12.09,2.7 10,2.19 L10,0 L7,0 L7,2.16 C6.47,2.28 5.97,2.46 5.52,2.7 L6.99,4.17 C7.4,4 7.9,3.9 8.5,3.9 Z M1.33,1.06 L0.06,2.33 L3.5,5.77 C3.5,7.85 5.06,8.98 7.41,9.68 L10.92,13.19 C10.58,13.67 9.87,14.1 8.5,14.1 C6.44,14.1 5.63,13.18 5.52,12 L3.32,12 C3.44,14.19 5.08,15.42 7,15.83 L7,18 L10,18 L10,15.85 C10.96,15.67 11.82,15.3 12.45,14.73 L14.67,16.95 L15.94,15.68 L1.33,1.06 Z" id="Shape"></path>
        </g>
    </g>
</svg>