<?xml version="1.0" encoding="UTF-8"?>
<svg width="96px" height="88px" viewBox="0 0 96 88" version="1.1" xmlns="http://www.w3.org/2000/svg" xmlns:xlink="http://www.w3.org/1999/xlink">
    <!-- Generator: Sketch 55 (78076) - https://sketchapp.com -->
    <title>night_black</title>
    <desc>Created with Sketch.</desc>
    <g id="Page-1" stroke="none" stroke-width="1" fill="none" fill-rule="evenodd">
        <g id="night_black" fill="#FFFFFF" fill-rule="nonzero">
            <path d="M95.1,25.3 C95.8,24.5 95.4,23.2 94.3,23 L82.7,20.7 C82.3,20.6 81.9,20.4 81.7,20 L76,9.7 C75.5,8.7 74.1,8.7 73.5,9.7 L67.9,20 C67.7,20.4 67.3,20.6 66.9,20.7 L55.3,23 C54.2,23.2 53.8,24.5 54.5,25.3 L62.6,34 C62.9,34.3 63,34.7 63,35.1 L61.6,46.8 C61.5,47.9 62.6,48.7 63.6,48.2 L74.3,43.2 C74.7,43 75.1,43 75.5,43.2 L86.2,48.2 C87.2,48.7 88.3,47.9 88.2,46.8 L86.8,35.1 C86.8,34.7 86.9,34.3 87.2,34 L95.1,25.3 Z" id="Path"></path>
            <path d="M72,70 C69.4,69.6 66.8,69 64.2,68.1 C41.4,60.4 29.2,35.6 37,12.8 C37.9,10.2 39,7.8 40.3,5.5 C41.6,3.1 39.7,0.2 37,0.7 C19.8,3.6 5,16.6 1.3,35.5 C-2.4,54.5 7.2,74.1 24.6,82.7 C41.8,91.2 61.2,87.4 73.9,75.6 C75.8,73.7 74.7,70.4 72,70 Z" id="Path"></path>
        </g>
    </g>
</svg>