<svg xmlns="http://www.w3.org/2000/svg" version="1.1" xmlns:xlink="http://www.w3.org/1999/xlink" xmlns:svgjs="http://svgjs.com/svgjs" viewBox="0 0 20 20" width="20" height="20"><title>Exported from Streamline App (https://app.streamlineicons.com)</title><g transform="matrix(0.8333333333333334,0,0,0.8333333333333334,0,0)"><path d="M 6.75,3.75h1.5c0.828,0,1.5,0.672,1.5,1.5v13.5c0,0.828-0.672,1.5-1.5,1.5h-1.5c-0.828,0-1.5-0.672-1.5-1.5 V5.25C5.25,4.422,5.922,3.75,6.75,3.75z " stroke="#ffffff" fill="none" stroke-width="1.5" stroke-linecap="round" stroke-linejoin="round"></path><path d="M 15.75,3.75h1.5c0.828,0,1.5,0.672,1.5,1.5v13.5c0,0.828-0.672,1.5-1.5,1.5h-1.5 c-0.828,0-1.5-0.672-1.5-1.5V5.25C14.25,4.422,14.922,3.75,15.75,3.75z" stroke="#ffffff" fill="none" stroke-width="1.5" stroke-linecap="round" stroke-linejoin="round"></path></g></svg>