<?xml version="1.0" encoding="UTF-8"?>
<svg width="61px" height="97px" viewBox="0 0 61 97" version="1.1" xmlns="http://www.w3.org/2000/svg" xmlns:xlink="http://www.w3.org/1999/xlink">
    <!-- Generator: Sketch 52.6 (67491) - http://www.bohemiancoding.com/sketch -->
    <title>read</title>
    <desc>Created with Sketch.</desc>
    <g id="Page-1" stroke="none" stroke-width="1" fill="none" fill-rule="evenodd">
        <g id="Artboard" transform="translate(-68.000000, -110.000000)" fill="#FFFFFF">
            <g id="read" transform="translate(68.000000, 110.000000)">
                <rect id="Rectangle" x="12" y="12" width="18" height="3"></rect>
                <rect id="Rectangle" x="12" y="24" width="37" height="3"></rect>
                <rect id="Rectangle" x="12" y="33" width="37" height="3"></rect>
                <rect id="Rectangle" x="12" y="42" width="37" height="3"></rect>
                <rect id="Rectangle" x="12" y="52" width="18" height="3"></rect>
                <path d="M51.85,0 L9.15,0 C4.1053,0 0,4.08976923 0,9.11538462 L0,69.8846154 C0,74.9102308 4.1053,79 9.15,79 L27.0962,79 L26.5472,77.5719231 C26.02565,76.0223077 26.23,74.3420385 27.0108,72.9230769 L9.15,72.9230769 C7.4664,72.9230769 6.1,71.5618462 6.1,69.8846154 L6.1,9.11538462 C6.1,7.43815385 7.4664,6.07692308 9.15,6.07692308 L51.85,6.07692308 C53.5336,6.07692308 54.9,7.43815385 54.9,9.11538462 L54.9,69.8846154 C54.9,71.0331538 54.23205,71.9963462 53.2896,72.5128846 C54.83595,72.8349615 56.1993,73.7495385 57.0472,75.0895 C57.3827,75.6212308 57.5962,76.2015769 57.74565,76.8001538 C59.719,75.1259615 61,72.6617692 61,69.8846154 L61,9.11538462 C61,4.08976923 56.8947,0 51.85,0 Z" id="Path"></path>
                <path d="M52.6239007,75.493 L45.37248,74.383 C44.0008407,74.161 42.6137201,73.012 42.6137201,71.665 L42.6137201,61 C42.6137201,59.341 41.2296957,58 39.5174687,58 C37.8052418,58 36.4212174,59.341 36.4212174,61 L36.4212174,79.075 C36.4212174,79.288 36.5574525,79.456 36.4119286,79.513 C36.2756936,79.474 36.1920948,79.381 36.1363623,79.225 L34.7492417,75.046 C34.3281515,73.825 33.1701535,73 31.8387654,73 C30.9191788,73 30.0708059,73.429 29.5351544,74.149 C28.9995029,74.869 28.8570754,75.799 29.148123,76.642 L36.4893349,95.227 C36.9073289,96.295 37.9693431,97 39.1490148,97 L47.4283909,97 C48.697854,97 49.8156007,96.187 50.1654771,95.002 L54.8903567,78.967 C55.1132868,78.214 54.992533,77.404 54.562154,76.738 C54.1286788,76.075 53.4227335,75.622 52.6239007,75.493 Z" id="Path"></path>
            </g>
        </g>
    </g>
</svg>