<?xml version="1.0" encoding="UTF-8"?>
<svg width="35px" height="35px" viewBox="0 0 35 35" version="1.1" xmlns="http://www.w3.org/2000/svg" xmlns:xlink="http://www.w3.org/1999/xlink">
    <!-- Generator: Sketch 52.6 (67491) - http://www.bohemiancoding.com/sketch -->
    <title>search-icon</title>
    <desc>Created with Sketch.</desc>
    <g id="Page-1" stroke="none" stroke-width="1" fill="none" fill-rule="evenodd">
        <g id="search-icon" fill="#FFFFFF" fill-rule="nonzero">
            <path d="M33.9,31.1 L23.5,20.7 C25.1,18.6 26,15.9 26,13 C26,5.8 20.2,0 13,0 C5.8,0 0,5.8 0,13 C0,20.2 5.8,26 13,26 C15.9,26 18.5,25.1 20.7,23.5 L31.1,33.9 C31.5,34.3 32,34.5 32.5,34.5 C33,34.5 33.5,34.3 33.9,33.9 C34.7,33.1 34.7,31.9 33.9,31.1 Z M13,22 C8,22 4,18 4,13 C4,8 8,4 13,4 C18,4 22,8 22,13 C22,18 18,22 13,22 Z" id="Shape"></path>
        </g>
    </g>
</svg>