<svg xmlns="http://www.w3.org/2000/svg" width="104" height="104" viewBox="0 0 104 104">
  <g id="Group_1" data-name="Group 1" transform="translate(-708 -470)">
    <path id="Rectangle_1" data-name="Rectangle 1" d="M18,10a8.009,8.009,0,0,0-8,8V86a8.009,8.009,0,0,0,8,8H86a8.009,8.009,0,0,0,8-8V18a8.009,8.009,0,0,0-8-8H18M18,0H86a18,18,0,0,1,18,18V86a18,18,0,0,1-18,18H18A18,18,0,0,1,0,86V18A18,18,0,0,1,18,0Z" transform="translate(708 470)" fill="#0b2541"/>
    <rect id="Rectangle_3" data-name="Rectangle 3" width="68" height="68" rx="5" transform="translate(726 488)" fill="#0b2541"/>
  </g>
</svg>
