<?xml version="1.0" encoding="UTF-8"?>
<svg width="5px" height="55px" viewBox="0 0 5 55" version="1.1" xmlns="http://www.w3.org/2000/svg" xmlns:xlink="http://www.w3.org/1999/xlink">
    <!-- Generator: Sketch 63.1 (92452) - https://sketch.com -->
    <title>stipla-linje</title>
    <desc>Created with Sketch.</desc>
    <g id="Page-1" stroke="none" stroke-width="1" fill="none" fill-rule="evenodd">
        <g id="stipla-linje">
            <g id="Rectangle_4">
                <rect id="Rectangle" fill="#FFFFFF" fill-rule="nonzero" x="0" y="0" width="5" height="6"></rect>
                <rect id="Rectangle" stroke="#000000" x="0.5" y="0.5" width="4" height="5"></rect>
            </g>
            <g id="Rectangle_5" transform="translate(0.000000, 14.000000)">
                <rect id="Rectangle" fill="#FFFFFF" fill-rule="nonzero" x="0" y="0" width="5" height="6"></rect>
                <rect id="Rectangle" stroke="#000000" x="0.5" y="0.5" width="4" height="5"></rect>
            </g>
            <g id="Rectangle_6" transform="translate(0.000000, 28.000000)">
                <rect id="Rectangle" fill="#FFFFFF" fill-rule="nonzero" x="0" y="0" width="5" height="6"></rect>
                <rect id="Rectangle" stroke="#000000" x="0.5" y="0.5" width="4" height="5"></rect>
            </g>
            <g id="Rectangle_7" transform="translate(0.000000, 42.000000)">
                <rect id="Rectangle" fill="#FFFFFF" fill-rule="nonzero" x="0" y="0" width="5" height="6"></rect>
                <rect id="Rectangle" stroke="#000000" x="0.5" y="0.5" width="4" height="5"></rect>
            </g>
            <g id="Rectangle_8" transform="translate(0.000000, 7.000000)">
                <rect id="Rectangle" fill="#FFFFFF" fill-rule="nonzero" x="0" y="0" width="5" height="6"></rect>
                <rect id="Rectangle" stroke="#000000" x="0.5" y="0.5" width="4" height="5"></rect>
            </g>
            <g id="Rectangle_9" transform="translate(0.000000, 21.000000)">
                <rect id="Rectangle" fill="#FFFFFF" fill-rule="nonzero" x="0" y="0" width="5" height="6"></rect>
                <rect id="Rectangle" stroke="#000000" x="0.5" y="0.5" width="4" height="5"></rect>
            </g>
            <g id="Rectangle_10" transform="translate(0.000000, 35.000000)">
                <rect id="Rectangle" fill="#FFFFFF" fill-rule="nonzero" x="0" y="0" width="5" height="6"></rect>
                <rect id="Rectangle" stroke="#000000" x="0.5" y="0.5" width="4" height="5"></rect>
            </g>
            <g id="Rectangle_11" transform="translate(0.000000, 49.000000)">
                <rect id="Rectangle" fill="#FFFFFF" fill-rule="nonzero" x="0" y="0" width="5" height="6"></rect>
                <rect id="Rectangle" stroke="#000000" x="0.5" y="0.5" width="4" height="5"></rect>
            </g>
        </g>
    </g>
</svg>