<?xml version="1.0" encoding="UTF-8"?>
<svg width="50px" height="52px" viewBox="0 0 50 52" version="1.1" xmlns="http://www.w3.org/2000/svg" xmlns:xlink="http://www.w3.org/1999/xlink">
    <!-- Generator: Sketch 52.6 (67491) - http://www.bohemiancoding.com/sketch -->
    <title>zoom</title>
    <desc>Created with Sketch.</desc>
    <g id="Page-1" stroke="none" stroke-width="1" fill="none" fill-rule="evenodd">
        <g id="zoom" fill="#000000" fill-rule="nonzero">
            <path d="M48.24,43.385 L38.801,33.935 C41.381,30.415 42.901,26.075 42.901,21.385 C42.901,9.635 33.341,0.085 21.601,0.085 C9.851,0.085 0.291,9.635 0.291,21.385 C0.291,33.135 9.851,42.695 21.601,42.695 C25.031,42.695 28.281,41.876 31.151,40.425 L41.172,50.455 C42.151,51.425 43.432,51.915 44.712,51.915 C45.991,51.915 47.272,51.425 48.241,50.455 C50.2,48.505 50.2,45.335 48.24,43.385 Z M28.841,37.104 C26.641,38.125 24.19,38.694 21.6,38.694 C12.04,38.694 4.29,30.944 4.29,21.384 C4.29,11.824 12.04,4.084 21.6,4.084 C31.15,4.084 38.9,11.824 38.9,21.384 C38.9,25.094 37.73,28.534 35.74,31.354 C34.001,33.835 31.62,35.825 28.841,37.104 Z" id="Shape"></path>
            <path d="M21.6,7.085 C13.71,7.085 7.29,13.495 7.29,21.385 C7.29,29.275 13.71,35.695 21.6,35.695 C24.46,35.695 27.131,34.855 29.37,33.385 C30.32,32.775 31.19,32.045 31.961,31.225 C34.41,28.665 35.9,25.205 35.9,21.385 C35.9,13.495 29.48,7.085 21.6,7.085 Z M28.24,22.505 C27.94,22.805 27.551,22.975 27.12,22.975 L23.18,22.975 L23.18,26.915 C23.18,27.335 23.01,27.734 22.71,28.035 C22.41,28.335 22.01,28.505 21.59,28.505 C20.72,28.505 20.01,27.785 20.01,26.915 L20.01,22.975 L16.07,22.975 C15.19,22.975 14.48,22.265 14.48,21.385 C14.48,20.515 15.19,19.805 16.07,19.805 L20.01,19.805 L20.01,15.865 C20.01,14.995 20.72,14.285 21.59,14.275 C22.47,14.275 23.18,14.985 23.18,15.865 L23.18,19.805 L27.12,19.805 C27.99,19.805 28.711,20.515 28.711,21.385 C28.711,21.815 28.54,22.215 28.24,22.505 Z" id="Shape"></path>
        </g>
    </g>
</svg>